<svg xmlns="http://www.w3.org/2000/svg" viewBox="0 0 32 32"><defs><style>.cls-1{fill-rule:evenodd;}</style></defs><title>permission</title><g id="Permission-icons"><g id="location-disable"><path class="cls-1" d="M25.9,12.6a9.93,9.93,0,0,1,.39,1.4H24.5l-2,2v2h3.79a10,10,0,0,1-7.79,7.8V22h-2l-2,2v1.8a9.91,9.91,0,0,1-1.4-.4l-3,3A14,14,0,0,0,28.93,9.57ZM28.5,2,25.35,5.15A14,14,0,0,0,5.65,24.85L2.5,28l2,2,26-26ZM8.5,22a10,10,0,0,1-1.8-4H10.5V14H6.71A10,10,0,0,1,14.5,6.2V10h4V6.2a9.93,9.93,0,0,1,4,1.8Z"/></g></g></svg>