<svg xmlns="http://www.w3.org/2000/svg" viewBox="0 0 32 32"><defs><style>.cls-1{fill-rule:evenodd;}</style></defs><title>permission</title><g id="Permission-icons"><g id="location-disable-win"><path class="cls-1" d="M29.23,14a12.9,12.9,0,0,0-1.16-3.68l-1.89,1.89A10.48,10.48,0,0,1,12.61,25.79l-1.89,1.89a12.9,12.9,0,0,0,3.67,1.16V31h4V28.83A13,13,0,0,0,29.23,18H31.4V14ZM16.4,23.51a7.49,7.49,0,0,0,7.38-8.9L15,23.38A7.54,7.54,0,0,0,16.4,23.51ZM28.4,2,24.52,5.88A12.93,12.93,0,0,0,18.4,3.17V1h-4V3.17A13,13,0,0,0,3.57,14H1.4v4H3.57a12.92,12.92,0,0,0,2.71,6.12L2.4,28l2,2,26-26ZM20.62,9.78A7.51,7.51,0,0,0,10.18,20.22L8.05,22.35a10.49,10.49,0,0,1,14.7-14.7Z"/></g></g></svg>