<svg xmlns="http://www.w3.org/2000/svg" viewBox="0 0 32 32"><defs><style>.cls-1{fill-rule:evenodd;}</style></defs><title>permission</title><g id="Permission-icons"><g id="microphone-disable"><path class="cls-1" d="M22.88,15.63v2.44a6.36,6.36,0,0,1-8.46,6L12.8,25.7a8.46,8.46,0,0,0,1.57.58v2.4H13.31a3.18,3.18,0,0,0-3,2.13H22.68a3.18,3.18,0,0,0-3-2.12H18.63v-2.4A8.5,8.5,0,0,0,25,18.06V13.81h-.31ZM20.5,18.06V18l-4.28,4.28c.1,0,.19,0,.28,0A4,4,0,0,0,20.5,18.06ZM28.5,2l-8,8V5.31a4,4,0,1,0-8,0V18l-2,2a6.28,6.28,0,0,1-.33-2V13.81H8v4.25a8.39,8.39,0,0,0,.83,3.61L2.5,28l2,2,26-26Z"/></g></g></svg>