<svg xmlns="http://www.w3.org/2000/svg" viewBox="0 0 32 32"><defs><style>.cls-1{fill-rule:evenodd;}</style></defs><title>permission</title><g id="Permission-icons"><g id="password"><path class="cls-1" d="M22.5,1a9,9,0,0,0-9,9,9.1,9.1,0,0,0,.05.95L11.5,13a.78.78,0,0,0,0,1l1,1a.67.67,0,0,1,0,1L1.5,27v3.5A.49.49,0,0,0,2,31H7a.49.49,0,0,0,.5-.5V29H9a.49.49,0,0,0,.5-.49V27h1a.49.49,0,0,0,.5-.5v-1h1s.5-.22.5-.52V23h2l3-3H18l1,1c.5.5.5.5.78.5a.94.94,0,0,0,.59-.27L22.12,19l.38,0a9,9,0,0,0,0-18Zm2,9a2,2,0,1,1,2-2A2,2,0,0,1,24.5,10Z"/></g></g></svg>