<svg width="16" height="16" xmlns="http://www.w3.org/2000/svg">
  <path d="M6 4.5V3h3.5H2c-.553 0-1 .45-1 1.002v9.996C1 14.544 1.447 15 2 15h11c.553 0 1-.45 1-1.002V10h-2v1.997c0 .554-.446 1.003-.998 1.003H3.998C3.448 13 3 12.562 3 11.997V7.003C3 6.45 3.446 6 3.998 6H6V4.5v4.502c0 .552.446.998.995.998h8.01c.54 0 .995-.447.995-.998V1.998c0-.552-.446-.998-.995-.998h-8.01C6.455 1 6 1.447 6 1.998V4.5zm1-.835C7 3.298 7.365 3 7.796 3h6.408c.44 0 .796.298.796.665v4.67c0 .367-.365.665-.796.665H7.796C7.356 9 7 8.702 7 8.335v-4.67z" fill-rule="evenodd"/>
</svg>
