<svg xmlns="http://www.w3.org/2000/svg" viewBox="0 0 32 32"><title>firefox</title><g id="General-icons"><path d="M27.33,24.3,24.9,21.88a10.19,10.19,0,0,0,1.53-3.77h3.45A1.08,1.08,0,0,0,30.94,17V14.88a1.08,1.08,0,0,0-1.08-1.07H26.43a10.76,10.76,0,0,0-1.57-3.75l2.42-2.44a1.08,1.08,0,0,0,0-1.52L25.75,4.61a1.07,1.07,0,0,0-1.52,0L21.82,7A10.19,10.19,0,0,0,18,5.52V2.07A1.07,1.07,0,0,0,17,1H14.82a1.07,1.07,0,0,0-1.07,1.08V5.52A10.78,10.78,0,0,0,10,7.09L7.57,4.67a1.07,1.07,0,0,0-1.51,0L4.54,6.19a1.07,1.07,0,0,0,0,1.52L7,10.13A10.19,10.19,0,0,0,5.45,13.9H2A1.08,1.08,0,0,0,.94,15v2.14A1.08,1.08,0,0,0,2,18.19H5.46A10.72,10.72,0,0,0,7,21.94L4.61,24.38a1.08,1.08,0,0,0,0,1.52L6.13,27.4a1.07,1.07,0,0,0,1.52,0L10.07,25a10.17,10.17,0,0,0,3.77,1.53v3.45A1.07,1.07,0,0,0,14.92,31h2.15a1.08,1.08,0,0,0,1.07-1.08V26.49a10.78,10.78,0,0,0,3.75-1.57l2.44,2.42a1.08,1.08,0,0,0,1.52,0l1.51-1.52A1.07,1.07,0,0,0,27.33,24.3Zm-13.2-3.78a4.87,4.87,0,1,1,6.33-2.7A4.87,4.87,0,0,1,14.13,20.52Z"/></g></svg>