<!-- This Source Code Form is subject to the terms of the Mozilla Public
   - License, v. 2.0. If a copy of the MPL was not distributed with this
   - file, You can obtain one at http://mozilla.org/MPL/2.0/. -->
<svg xmlns="http://www.w3.org/2000/svg" viewBox="0 0 12 14">
  <path fill="context-fill" d="M1.5 6h9A1.5 1.5 0 0 1 12 7.48v5A1.5 1.5 0 0 1 10.5 14h-9A1.5 1.5 0 0 1 0 12.5v-5A1.5 1.5 0 0 1 1.5 6z"/>
  <path fill="context-fill" d="M6 0a4 4 0 0 0-4 4v3a4 4 0 0 0 8 0V4a4 4 0 0 0-4-4zm2 8a2 2 0 0 1-4 0V4a2 2 0 0 1 4 0z"/>
</svg>
