<!-- This Source Code Form is subject to the terms of the Mozilla Public
   - License, v. 2.0. If a copy of the MPL was not distributed with this
   - file, You can obtain one at http://mozilla.org/MPL/2.0/. -->
<svg xmlns="http://www.w3.org/2000/svg" viewBox="0 0 14 14">
  <path fill="context-fill" d="M11.5 6H11l-8 8h8.5c.8 0 1.5-.7 1.5-1.5v-5c0-.8-.7-1.5-1.5-1.5zM13.7.3c-.4-.4-1-.4-1.4 0l-1.8 1.8C9.6.6 7.9-.3 6.1.1 4.3.6 3 2.2 3 4v2h-.5C1.7 6 1 6.7 1 7.5v4.1l-.7.7c-.4.4-.4 1 0 1.4.2.2.4.3.7.3s.5-.1.7-.3l12-12c.4-.4.4-1 0-1.4zM5 6V4c0-1.1.9-2 2-2 1 0 1.8.7 2 1.6L6.6 6H5z"/>
</svg>
