<!-- This Source Code Form is subject to the terms of the Mozilla Public
   - License, v. 2.0. If a copy of the MPL was not distributed with this
   - file, You can obtain one at http://mozilla.org/MPL/2.0/. -->
<svg xmlns="http://www.w3.org/2000/svg" width="16" height="16" viewBox="0 0 16 16">
  <title>screenshot-16</title>
  <path fill="context-fill" d="M5,3H7V1H5ZM2,3H4V1A2,2,0,0,0,2,3ZM8,3h2V1H8Zm3,0h2V1H11Zm3-2V3h2A2,2,0,0,0,14,1Zm0,5h2V4H14Zm0,3h2V7H14Zm0,3a2,2,0,0,0,2-2H14ZM2,6H4V4H2Z"/>
  <path fill="context-fill" d="M2.5,5A2.5,2.5,0,1,0,5,7.5,2.5,2.5,0,0,0,2.5,5Zm0,3.75A1.25,1.25,0,1,1,3.75,7.5,1.25,1.25,0,0,1,2.5,8.75Z"/>
  <path fill="context-fill" d="M2.5,11A2.5,2.5,0,1,0,5,13.5,2.5,2.5,0,0,0,2.5,11Zm0,3.75A1.25,1.25,0,1,1,3.75,13.5,1.25,1.25,0,0,1,2.5,14.75Z"/>
  <path fill="context-fill" d="M7.9,12.321l3.017,2.3a2,2,0,0,0,2.785-.492L9.64,11.1Zm-3.19.862,8.853-6.35a2,2,0,0,0-2.785-.492L6.939,9.172,4.78,7.658,3.765,9.389l1.43,1L3.552,11.55Z"/>
</svg>
