
<!-- This Source Code Form is subject to the terms of the Mozilla Public
   - License, v. 2.0. If a copy of the MPL was not distributed with this
   - file, You can obtain one at http://mozilla.org/MPL/2.0/. -->
<svg xmlns="http://www.w3.org/2000/svg" width="16" height="16" viewBox="0 0 16 16"><title>screenshot-16</title><path fill="context-fill" d="M5 3h2V1H5zM2 3h2V1a2 2 0 0 0-2 2zm6 0h2V1H8zm3 0h2V1h-2zm3-2v2h2a2 2 0 0 0-2-2zm0 5h2V4h-2zm0 3h2V7h-2zm0 3a2 2 0 0 0 2-2h-2zM2 6h2V4H2z"/><path fill="context-fill" d="M2.5 5A2.5 2.5 0 1 0 5 7.5 2.5 2.5 0 0 0 2.5 5zm0 3.75A1.25 1.25 0 1 1 3.75 7.5 1.25 1.25 0 0 1 2.5 8.75zm0 2.25A2.5 2.5 0 1 0 5 13.5 2.5 2.5 0 0 0 2.5 11zm0 3.75a1.25 1.25 0 1 1 1.25-1.25 1.25 1.25 0 0 1-1.25 1.25z"/><path fill="context-fill" d="M7.9 12.321l3.017 2.3a2 2 0 0 0 2.785-.492L9.64 11.1zm-3.19.862l8.853-6.35a2 2 0 0 0-2.785-.492L6.939 9.172 4.78 7.658 3.765 9.389l1.43 1-1.643 1.161z"/></svg>