<!-- This Source Code Form is subject to the terms of the Mozilla Public
   - License, v. 2.0. If a copy of the MPL was not distributed with this
   - file, You can obtain one at http://mozilla.org/MPL/2.0/. -->
<svg width="24" height="24" viewBox="0 0 24 24" fill="none" xmlns="http://www.w3.org/2000/svg"><path fill-rule="evenodd" clip-rule="evenodd" d="M12 2a1 1 0 0 1 .87.507l2.768 4.884 5.536.977a1 1 0 0 1 .624 1.588l-3.744 4.955.934 5.934a1 1 0 0 1-1.456 1.039L12 18.955l-5.532 2.929a1 1 0 0 1-1.456-1.04l.934-5.933-3.744-4.955a1 1 0 0 1 .624-1.588l5.536-.977 2.768-4.884A1 1 0 0 1 12 2zm0 3.028l-2.13 3.76a1 1 0 0 1-.696.49l-4.391.776 3.015 3.99a1 1 0 0 1 .19.759l-.69 4.378 4.234-2.241a1 1 0 0 1 .936 0l4.232 2.24-.689-4.378a1 1 0 0 1 .19-.759l3.015-3.99-4.39-.775a1 1 0 0 1-.697-.492L12 5.028z" fill="#0C0C0D" fill-opacity=".8"/></svg>