<!-- This Source Code Form is subject to the terms of the Mozilla Public
   - License, v. 2.0. If a copy of the MPL was not distributed with this
   - file, You can obtain one at http://mozilla.org/MPL/2.0/. -->
<svg width="24" height="24" viewBox="0 0 24 24" fill="none" xmlns="http://www.w3.org/2000/svg"><path fill-rule="evenodd" clip-rule="evenodd" d="M12 9a3 3 0 1 0 0 6 3 3 0 0 0 0-6zm-5 3a5 5 0 1 1 10 0 5 5 0 0 1-10 0zm5-10a1 1 0 0 1 1 1v2a1 1 0 1 1-2 0V3a1 1 0 0 1 1-1zm0 16a1 1 0 0 1 1 1v2a1 1 0 1 1-2 0v-2a1 1 0 0 1 1-1zM2 12a1 1 0 0 1 1-1h2a1 1 0 1 1 0 2H3a1 1 0 0 1-1-1zm16 0a1 1 0 0 1 1-1h2a1 1 0 1 1 0 2h-2a1 1 0 0 1-1-1zM4.923 4.923a1 1 0 0 1 1.414 0l1.37 1.37a1 1 0 1 1-1.414 1.414l-1.37-1.37a1 1 0 0 1 0-1.414zm0 14.154a1 1 0 0 0 1.414 0l1.37-1.37a1 1 0 1 0-1.414-1.414l-1.37 1.37a1 1 0 0 0 0 1.414zM19.077 4.923a1 1 0 0 0-1.414 0l-1.37 1.37a1 1 0 0 0 1.414 1.414l1.37-1.37a1 1 0 0 0 0-1.414zm0 14.154a1 1 0 0 1-1.414 0l-1.37-1.37a1 1 0 0 1 1.414-1.414l1.37 1.37a1 1 0 0 1 0 1.414z" fill="#0C0C0D" fill-opacity=".8"/></svg>