<!-- This Source Code Form is subject to the terms of the Mozilla Public
   - License, v. 2.0. If a copy of the MPL was not distributed with this
   - file, You can obtain one at http://mozilla.org/MPL/2.0/. -->
<svg width="24" height="24" viewBox="0 0 24 24" fill="none" xmlns="http://www.w3.org/2000/svg"><path fill-rule="evenodd" clip-rule="evenodd" d="M5 4a3 3 0 0 0-3 3v1a1 1 0 0 0 2 0V7a1 1 0 0 1 1-1h14a1 1 0 0 1 1 1v11a1 1 0 0 1-1 1h-4a1 1 0 1 0 0 2h4a3 3 0 0 0 3-3V7a3 3 0 0 0-3-3H5zM3 21a1 1 0 1 0 0-2 1 1 0 0 0 0 2zm-1-5a1 1 0 0 1 1-1 5 5 0 0 1 5 5 1 1 0 1 1-2 0 3 3 0 0 0-3-3 1 1 0 0 1-1-1zm1-5a1 1 0 1 0 0 2 7 7 0 0 1 7 7 1 1 0 1 0 2 0 9 9 0 0 0-9-9z" fill="#0C0C0D" fill-opacity=".8"/></svg>