<!-- This Source Code Form is subject to the terms of the Mozilla Public
   - License, v. 2.0. If a copy of the MPL was not distributed with this
   - file, You can obtain one at http://mozilla.org/MPL/2.0/. -->
<svg width="24" height="24" viewBox="0 0 24 24" xmlns="http://www.w3.org/2000/svg"><path d="M19 9H5v9c0 .5.5 1 1 1h12c.5 0 1-.5 1-1V9zm-1-2l-2-2H8L6 7h12zM3 18V8c0-.7.5-1.5 1-2l2-2c.5-.5 1.3-1 2-1h8c.8 0 1.5.4 2 1l2 2c.4.5 1 1.3 1 2v10c0 1.5-1.5 3-3 3H6c-1.5 0-3-1.5-3-3z" fill="#0C0C0D" fill-opacity=".8"/><path d="M16.5 11h-9a.5.5 0 0 0 0 1h9a.5.5 0 0 0 0-1zm0 5h-9a.5.5 0 0 0 0 1h9a.5.5 0 0 0 0-1zm0-2.5h-9a.5.5 0 0 0 0 1h9a.5.5 0 0 0 0-1z" fill="#0C0C0D" fill-opacity=".8"/></svg>