<!-- This Source Code Form is subject to the terms of the Mozilla Public
   - License, v. 2.0. If a copy of the MPL was not distributed with this
   - file, You can obtain one at http://mozilla.org/MPL/2.0/. -->
<svg width="24" height="24" viewBox="0 0 24 24" xmlns="http://www.w3.org/2000/svg"><path d="M21.3 12c-.8 0-1.6-.1-2.4-.5l.1.5c0 .5-.5 1-1 1a1 1 0 0 1-1-1c0-.5.3-.7.4-.8l.3-.2C14 10 12 5 12 2.7c0-1.4-4-.6-3.6.7-.5-1.3-4 1-3 2-1-1-3.3 2.5-2 3-1.3-.5-2 3.6-.7 3.6-1.4 0-.6 4 .7 3.6-1.3.5 1 4 2 3-1 1 2.5 3.3 3 2-.5 1.3 3.6 2 3.6.7 0 1.4 4 .6 3.5-.7.6 1.3 4-1 3-2 1 1 3.4-2.5 2-3 1.4.5 2.2-3.6.8-3.6zM7 12c0 .5-.5 1-1 1a1 1 0 0 1-1-1c0-.5.5-1 1-1s1 .5 1 1zm2 6a1 1 0 0 1-1-1c0-.5.5-1 1-1s1 .5 1 1-.5 1-1 1zM9 8a1 1 0 0 1-1-1c0-.6.4-1 1-1s1 .4 1 1-.4 1-1 1zm3 5a1 1 0 0 1-1-1c0-.5.5-1 1-1s1 .5 1 1-.5 1-1 1zm3 5a1 1 0 0 1-1-1c0-.5.5-1 1-1s1 .5 1 1-.5 1-1 1z"/></svg>