<!-- This Source Code Form is subject to the terms of the Mozilla Public
   - License, v. 2.0. If a copy of the MPL was not distributed with this
   - file, You can obtain one at http://mozilla.org/MPL/2.0/. -->
<svg width="24" height="24" viewBox="0 0 24 24" xmlns="http://www.w3.org/2000/svg"><path d="M21.6 3.6c.4.4.4 1 .05 1.343L12.9 14.978a1 1 0 0 1-.7.4c-.3 0-.5-.1-.7-.3l-1.3-1.3a1 1 0 0 1-.3-.7 1 1 0 0 1 .3-.7l10-8.75a1 1 0 0 1 1.3 0zM7.1 15.5c1 0 2 .6 2.3 1.6.4 1 0 2-.7 2.7-1.25 1.25-3.5 2-6 1.9-.3 0-.625-.3-.625-.625 0-.2.1-.4.3-.54 1.3-.6 1.7-1.8 2.2-3.2a2.5 2.5 0 0 1 2.4-1.8z" fill="#0C0C0D" fill-opacity=".8"/></svg>