<!-- This Source Code Form is subject to the terms of the Mozilla Public
   - License, v. 2.0. If a copy of the MPL was not distributed with this
   - file, You can obtain one at http://mozilla.org/MPL/2.0/. -->
<svg width="24" height="24" viewBox="0 0 24 24" fill="none" xmlns="http://www.w3.org/2000/svg"><path fill-rule="evenodd" clip-rule="evenodd" d="M22 6a2 2 0 0 1-2.07 2l-3.2 5a2 2 0 1 1-3.8.8l-3.2-2.1a2 2 0 0 1-.83.3l-3.2 5a2 2 0 1 1-1.63-1l3.164-5.1a2 2 0 1 1 3.8-.8l3.2 2.1a2 2 0 0 1 .866-.2l3.2-5A2 2 0 1 1 22 6z" fill="#0C0C0D" fill-opacity=".8"/></svg>