<!-- This Source Code Form is subject to the terms of the Mozilla Public
   - License, v. 2.0. If a copy of the MPL was not distributed with this
   - file, You can obtain one at http://mozilla.org/MPL/2.0/. -->
<svg width="24" height="24" viewBox="0 0 24 24" fill="none" xmlns="http://www.w3.org/2000/svg"><path fill-rule="evenodd" clip-rule="evenodd" d="M4 6a1 1 0 0 1 1-1h14a1 1 0 0 1 1 1v11h1.5a.5.5 0 0 1 .5.5v1a.5.5 0 0 1-.5.5h-19a.5.5 0 0 1-.5-.5v-1a.5.5 0 0 1 .5-.5H4V6zm6 11v1h4v-1h-4zM6 7h12v9H6V7z" fill="#0C0C0D" fill-opacity=".8"/></svg>