<!-- This Source Code Form is subject to the terms of the Mozilla Public
   - License, v. 2.0. If a copy of the MPL was not distributed with this
   - file, You can obtain one at http://mozilla.org/MPL/2.0/. -->
<svg width="24" height="24" viewBox="0 0 24 24" fill="none" xmlns="http://www.w3.org/2000/svg"><path d="M20.1 12c-1.2 0-1.2 1.2-2.2 1.2-.5 0-.9-.4-.9-.9V8.2c0-.6-.6-1.2-1.2-1.2h-4.1c-.5 0-.9-.4-.9-.9 0-.9 1.2-1 1.2-2.2C12 2.8 10.9 2 9.5 2S7 2.8 7 3.9c0 1.2 1.2 1.2 1.2 2.2 0 .5-.4.9-.9.9H3.2C2.6 7 2 7.6 2 8.2V11c0 .6.4 1 .9 1 .9 0 1-1.2 2.2-1.2 1.1 0 1.9 1.1 1.9 2.4 0 1.4-.8 2.5-1.9 2.5-1.2 0-1.2-1.2-2.2-1.2-.5 0-.9.4-.9.9v5.3c0 .7.6 1.3 1.2 1.3h4.1c.5 0 .9-.4.9-.9 0-.9-1.2-1-1.2-2.2C7 17.8 8.1 17 9.5 17s2.5.8 2.5 1.9c0 1.2-1.2 1.2-1.2 2.2 0 .5.4.9.9.9h4.1c.7 0 1.2-.6 1.2-1.2v-4.1c0-.5.4-.9.9-.9.9 0 1 1.2 2.2 1.2 1.1 0 1.9-1.1 1.9-2.5s-.8-2.5-1.9-2.5z" fill="#0C0C0D" fill-opacity=".8"/></svg>