<!-- This Source Code Form is subject to the terms of the Mozilla Public
   - License, v. 2.0. If a copy of the MPL was not distributed with this
   - file, You can obtain one at http://mozilla.org/MPL/2.0/. -->
<svg width="24" height="24" viewBox="0 0 24 24" fill="none" xmlns="http://www.w3.org/2000/svg"><path fill-rule="evenodd" clip-rule="evenodd" d="M18.9 16.1c-.5.4-1 .6-1.5.8-.4.2-.9.3-1.3.3-.6 0-1.1-.2-1.5-.6-.4-.4-.6-.9-.6-1.6 0-.8.3-1.3.9-1.8.6-.5 1.9-.9 4.1-1.3v-.4c0-.6-.1-1-.4-1.3-.2-.3-.6-.4-1.2-.4H17c-.1 0-.3 0-.4.1v1.5h-1.5c-.3 0-.4 0-.6-.1-.1-.1-.2-.2-.2-.5 0-.5.3-.9 1-1.3s1.5-.6 2.5-.6c1.1 0 1.9.2 2.4.6.5.4.7 1.2.7 2.2V16l.2.2.9.1v.7h-2.9l-.2-.9zm0-.7v-2.6c-1.1.2-1.8.5-2.2.8-.4.3-.6.7-.6 1.1 0 .4.1.7.3.9.2.2.5.3.9.3.2 0 .4 0 .7-.1.3-.1.6-.2.9-.4zM6.6 6h1.7L12 16l1 .2v.8H8.7v-.8l1-.1.1-.2-1-2.8H5.3l-1 2.7.2.2 1 .1v.9H2v-.8l1-.2L6.6 6zM7 8.2l-1.4 4h2.9L7 8.2z" fill="#0C0C0D" fill-opacity=".8"/></svg>