<!-- This Source Code Form is subject to the terms of the Mozilla Public
   - License, v. 2.0. If a copy of the MPL was not distributed with this
   - file, You can obtain one at http://mozilla.org/MPL/2.0/. -->
<svg width="24" height="24" viewBox="0 0 24 24" xmlns="http://www.w3.org/2000/svg"><path d="M12 2a10 10 0 1 0 0 20 10 10 0 0 0 0-20zm8 9h-4c0-2.2-.5-4.4-1.2-6.5a8 8 0 0 1 5.1 6.5zm-8 9c-.5 0-1.8-2.4-2-7h4c-.2 4.6-1.5 7-2 7zm-2-9c.2-4.6 1.5-7 2-7s1.8 2.4 2 7h-4zm-.8-6.5C8.5 6.5 8 8.8 8 11H4a8 8 0 0 1 5.2-6.5zM4.1 13h4c0 2.2.4 4.4 1.1 6.5A8 8 0 0 1 4.1 13zm10.7 6.5c.7-2 1.2-4.3 1.2-6.5h4a8 8 0 0 1-5.2 6.5z" fill="#0C0C0D" fill-opacity=".8"/></svg>