<!-- This Source Code Form is subject to the terms of the Mozilla Public
   - License, v. 2.0. If a copy of the MPL was not distributed with this
   - file, You can obtain one at http://mozilla.org/MPL/2.0/. -->
<svg width="24" height="24" viewBox="0 0 24 24" fill="none" xmlns="http://www.w3.org/2000/svg"><path d="M12 2a10 10 0 1 0 0 20 10 10 0 0 0 0-20zm0 18a8 8 0 1 1 0-16 8 8 0 0 1 0 16zm0-4.5a1.6 1.6 0 1 0 0 3.3 1.6 1.6 0 0 0 0-3.3zm0-9.8a3.5 3.5 0 0 0-3.7 3.7 1.1 1.1 0 0 0 2.3 0c0-1.3.7-1.4 1.4-1.4.6 0 1.2.3 1.4 1 .2.5-.1 1-.6 1.2a3.5 3.5 0 0 0-2 3v.5a1.1 1.1 0 0 0 2.3 0v-.5c0-.4.4-.8.8-1a3.4 3.4 0 0 0 1.7-3.8c-.4-1.6-2-2.7-3.6-2.7z" fill="#0C0C0D" fill-opacity=".8"/></svg>