<!-- This Source Code Form is subject to the terms of the Mozilla Public
   - License, v. 2.0. If a copy of the MPL was not distributed with this
   - file, You can obtain one at http://mozilla.org/MPL/2.0/. -->
<svg width="24" height="24" viewBox="0 0 24 24" fill="none" xmlns="http://www.w3.org/2000/svg"><path fill-rule="evenodd" clip-rule="evenodd" d="M4 12a8 8 0 1 1 16 0 8 8 0 0 1-16 0zm8-10C6.477 2 2 6.477 2 12s4.477 10 10 10 10-4.477 10-10S17.523 2 12 2zm0 5.5a.5.5 0 0 0-1 0v5a.5.5 0 0 0 .5.5h5a.5.5 0 0 0 0-1H12V7.5z" fill="#0C0C0D" fill-opacity=".8"/></svg>