<!-- This Source Code Form is subject to the terms of the Mozilla Public
   - License, v. 2.0. If a copy of the MPL was not distributed with this
   - file, You can obtain one at http://mozilla.org/MPL/2.0/. -->
<svg width="24" height="24" viewBox="0 0 24 24" fill="none" xmlns="http://www.w3.org/2000/svg"><path fill-rule="evenodd" clip-rule="evenodd" d="M11.293 2.293a1 1 0 0 1 1.414 0l9 9a1 1 0 0 1-1.414 1.414L19 11.414V19a3 3 0 0 1-3 3H8a3 3 0 0 1-3-3v-7.586l-1.293 1.293a1 1 0 0 1-1.414-1.414l9-9zM12 4.414l5 5V19a1 1 0 0 1-1 1h-1v-6a2 2 0 0 0-2-2h-2a2 2 0 0 0-2 2v6H8a1 1 0 0 1-1-1V9.414l5-5zM14 16.5a.5.5 0 1 1-1 0 .5.5 0 0 1 1 0z" fill="#0C0C0D" fill-opacity=".8"/></svg>