<!-- This Source Code Form is subject to the terms of the Mozilla Public
   - License, v. 2.0. If a copy of the MPL was not distributed with this
   - file, You can obtain one at http://mozilla.org/MPL/2.0/. -->
<svg width="24" height="24" viewBox="0 0 24 24" fill="none" xmlns="http://www.w3.org/2000/svg"><path fill-rule="evenodd" clip-rule="evenodd" d="M5 4a1 1 0 1 0-2 0v16a1 1 0 1 0 2 0V4zm4 3a1 1 0 1 0-2 0v13a1 1 0 1 0 2 0V7zm3-2a1 1 0 0 1 1 1v14a1 1 0 1 1-2 0V6a1 1 0 0 1 1-1zm4.452.694a1 1 0 1 0-1.904.612l4.5 14a1 1 0 1 0 1.904-.612l-4.5-14z" fill="#0C0C0D" fill-opacity=".8"/></svg>