<!-- This Source Code Form is subject to the terms of the Mozilla Public
   - License, v. 2.0. If a copy of the MPL was not distributed with this
   - file, You can obtain one at http://mozilla.org/MPL/2.0/. -->
<svg width="24" height="24" viewBox="0 0 24 24" xmlns="http://www.w3.org/2000/svg"><path d="M4.47 7.5l3-3c.3-.3.7-.3 1 0l4.2 4.2c.8-1 .7-2.4-.2-3.3L9.84 2.7a2.5 2.5 0 0 0-3.53 0L2.77 6.28a2.5 2.5 0 0 0 0 3.52l2.66 2.67c.9.9 2.25 1 3.2.2l-4.2-4.2a.7.7 0 0 1 0-1zm16.8 6.63a2.5 2.5 0 0 1 0 3.53l-3.55 3.54a2.5 2.5 0 0 1-3.53 0l-2.7-2.7a2.49 2.49 0 0 1-.2-3.24l4.2 4.2a.7.7 0 0 0 1 0l3.04-3.05a.7.7 0 0 0 0-1l-4.2-4.2c1-.8 2.4-.7 3.3.2l2.66 2.66zm-5.1.56a1 1 0 0 1-1.42 1.41L7.8 9.2a1 1 0 1 1 1.44-1.4l6.9 6.9z" fill="#0C0C0D" fill-opacity=".8"/></svg>