<!-- This Source Code Form is subject to the terms of the Mozilla Public
   - License, v. 2.0. If a copy of the MPL was not distributed with this
   - file, You can obtain one at http://mozilla.org/MPL/2.0/. -->
<svg width="24" height="24" viewBox="0 0 24 24" xmlns="http://www.w3.org/2000/svg"><path d="M12 9a3 3 0 1 0 3 3 3 3 0 0 0-3-3zm9 2h-1.07A8 8 0 0 0 13 4.07V3a1 1 0 0 0-2 0v1.07A8 8 0 0 0 4.07 11H3a1 1 0 0 0 0 2h1.07A8 8 0 0 0 11 19.93V21a1 1 0 0 0 2 0v-1.07A8 8 0 0 0 19.93 13H21a1 1 0 0 0 0-2zm-9 7a6 6 0 1 1 6-6 6 6 0 0 1-6 6z" fill="#0C0C0D" fill-opacity=".8"/></svg>