<!-- This Source Code Form is subject to the terms of the Mozilla Public
   - License, v. 2.0. If a copy of the MPL was not distributed with this
   - file, You can obtain one at http://mozilla.org/MPL/2.0/. -->
<svg width="24" height="24" viewBox="0 0 24 24" xmlns="http://www.w3.org/2000/svg"><path d="M11.38 4.84a5.47 5.47 0 0 0-1.34 4.32L9 10.2a.47.47 0 0 0 0 .6c.12.2.26.4.43.56.21.19.4.4.57.64l-7 7v1.7a.3.3 0 0 0 .3.3H7v-1h1v-1.5h1V18h1v-2h1l1.6-1.6h.3l.6.6c.3.3.3.3.47.3a.56.56 0 0 0 .35-.16l.9-1.15h.28a5.5 5.5 0 1 0-4.12-9.16zM17.5 8a1.5 1.5 0 1 1 0-3 1.5 1.5 0 0 1 0 3z" fill="#0C0C0D" fill-opacity=".8"/></svg>