<!-- This Source Code Form is subject to the terms of the Mozilla Public
   - License, v. 2.0. If a copy of the MPL was not distributed with this
   - file, You can obtain one at http://mozilla.org/MPL/2.0/. -->
<svg width="24" height="24" viewBox="0 0 24 24" fill="none" xmlns="http://www.w3.org/2000/svg"><path fill-rule="evenodd" clip-rule="evenodd" d="M7 6a2 2 0 0 0-2 2v7H3a1 1 0 0 0 0 2h11v-1a1 1 0 0 1 1-1h2v-2a1 1 0 0 1 1-1h1V8a2 2 0 0 0-2-2H7zm11.5 7a.5.5 0 0 1 .5.5V16h2.5a.5.5 0 1 1 0 1H19v2.5a.5.5 0 1 1-1 0V17h-2.5a.5.5 0 1 1 0-1H18v-2.5a.5.5 0 0 1 .5-.5z" fill="#0C0C0D" fill-opacity=".8"/></svg>