<!-- This Source Code Form is subject to the terms of the Mozilla Public
   - License, v. 2.0. If a copy of the MPL was not distributed with this
   - file, You can obtain one at http://mozilla.org/MPL/2.0/. -->
<svg width="24" height="24" viewBox="0 0 24 24" fill="none" xmlns="http://www.w3.org/2000/svg"><path fill-rule="evenodd" clip-rule="evenodd" d="M12.617 2.076a1 1 0 0 1 1.09.217l8 8A1 1 0 0 1 21 12c-1.034 0-1.886.007-2.6.212-.647.184-1.149.522-1.506 1.235-.189.378-.293.773-.379 1.247-.026.144-.053.314-.082.5-.057.357-.123.77-.207 1.148-.288 1.297-.875 2.721-2.519 4.365a1 1 0 0 1-1.414 0L8.5 16.914l-4.793 4.793a1 1 0 1 1-1.414-1.414L7.086 15.5l-3.793-3.793a1 1 0 0 1 0-1.414c1.644-1.644 3.068-2.23 4.365-2.52.378-.083.79-.149 1.149-.206.185-.029.355-.056.498-.082.475-.086.87-.19 1.248-.38.713-.356 1.05-.858 1.235-1.505.205-.715.212-1.566.212-2.6a1 1 0 0 1 .617-.924z" fill="#0C0C0D" fill-opacity=".8"/></svg>