<!-- This Source Code Form is subject to the terms of the Mozilla Public
   - License, v. 2.0. If a copy of the MPL was not distributed with this
   - file, You can obtain one at http://mozilla.org/MPL/2.0/. -->
<svg width="36" height="36" viewBox="0 0 36 36" fill="none" xmlns="http://www.w3.org/2000/svg"><path fill-rule="evenodd" clip-rule="evenodd" d="M19.395 3.11a1.45 1.45 0 0 1 1.58.315l11.6 11.6A1.45 1.45 0 0 1 31.55 17.5c-1.5 0-2.734.01-3.77.307-.939.268-1.666.757-2.183 1.792-.274.548-.425 1.12-.55 1.808-.038.208-.077.455-.12.723-.082.52-.177 1.117-.3 1.666-.417 1.881-1.268 3.946-3.652 6.33a1.45 1.45 0 0 1-2.05 0l-5.5-5.5-6.95 6.95a1.45 1.45 0 1 1-2.05-2.051l6.95-6.95-5.5-5.5a1.45 1.45 0 0 1 0-2.05c2.383-2.384 4.448-3.235 6.33-3.653a28.327 28.327 0 0 1 1.665-.3c.268-.042.515-.081.723-.119.689-.125 1.26-.276 1.808-.55 1.035-.517 1.524-1.244 1.792-2.183.296-1.036.307-2.27.307-3.77 0-.586.353-1.115.895-1.34z" fill="#0C0C0D" fill-opacity=".8"/></svg>