<!-- This Source Code Form is subject to the terms of the Mozilla Public
   - License, v. 2.0. If a copy of the MPL was not distributed with this
   - file, You can obtain one at http://mozilla.org/MPL/2.0/. -->
<svg width="24" height="24" viewBox="0 0 24 24" xmlns="http://www.w3.org/2000/svg"><path d="M16.7 21H7.3A3.3 3.3 0 0 1 4 17.7V6.3C4 4.5 5.5 3 7.3 3h9.4C18.5 3 20 4.5 20 6.3v11.4c0 1.8-1.5 3.3-3.3 3.3zM7.3 5C6.6 5 6 5.6 6 6.3v11.4c0 .7.6 1.3 1.3 1.3h9.4c.7 0 1.3-.6 1.3-1.3V6.3c0-.7-.6-1.3-1.3-1.3H7.3zM15 8H9a.5.5 0 0 1 0-1h6a.5.5 0 0 1 0 1zm0 3H9a.5.5 0 0 1 0-1h6a.5.5 0 0 1 0 1zm0 3H9a.5.5 0 0 1 0-1h6a.5.5 0 0 1 0 1zm-3.4 3H9a.5.5 0 0 1 0-1h2.6a.5.5 0 0 1 0 1z" fill="#0C0C0D" fill-opacity=".8"/></svg>