<!-- This Source Code Form is subject to the terms of the Mozilla Public
   - License, v. 2.0. If a copy of the MPL was not distributed with this
   - file, You can obtain one at http://mozilla.org/MPL/2.0/. -->
<svg width="36" height="36" viewBox="0 0 36 36" fill="none" xmlns="http://www.w3.org/2000/svg"><path fill-rule="evenodd" clip-rule="evenodd" d="M6 18c0-6.075 4.925-11 11-11 4.663 0 8.65 2.902 10.25 7H21.5a1.5 1.5 0 0 0 0 3h9a1.5 1.5 0 0 0 1.5-1.5v-9a1.5 1.5 0 0 0-3 0v4.286C26.55 6.72 22.094 4 17 4 9.268 4 3 10.268 3 18s6.268 14 14 14a13.95 13.95 0 0 0 8.96-3.243 1.5 1.5 0 0 0-1.92-2.304A10.95 10.95 0 0 1 17 29c-6.075 0-11-4.925-11-11z" fill="#0C0C0D" fill-opacity=".8"/></svg>