<!-- This Source Code Form is subject to the terms of the Mozilla Public
   - License, v. 2.0. If a copy of the MPL was not distributed with this
   - file, You can obtain one at http://mozilla.org/MPL/2.0/. -->
<svg width="24" height="24" viewBox="0 0 24 24" xmlns="http://www.w3.org/2000/svg"><path d="M9 15h6v1H9zm0 2h6v1H9z" fill="#0C0C0D" fill-opacity=".8"/><path fill-rule="evenodd" d="M12 2C7.7 2 5 4.8 5 9c0 3 2 5 3 6v4.5c0 1.8 2.4 2.5 4 2.5s4-.7 4-2.5V15c1-1 3-3 3-6 0-4.2-2.7-7-7-7zm0 2C9.9 4 7 5.4 7 9c0 2 1.7 3.9 2.5 4.5.3.2.5.6.5 1v5l2 .5 2-.5v-5c0-.4.2-.8.5-1C15.3 12.9 17 11 17 9c0-3.6-2.9-5-5-5z" fill-opacity=".8"/></svg>