<!-- This Source Code Form is subject to the terms of the Mozilla Public
   - License, v. 2.0. If a copy of the MPL was not distributed with this
   - file, You can obtain one at http://mozilla.org/MPL/2.0/. -->
<svg width="24" height="24" viewBox="0 0 24 24" fill="none" xmlns="http://www.w3.org/2000/svg"><path fill-rule="evenodd" clip-rule="evenodd" d="M21.707 3.707a1 1 0 0 0-1.414-1.414l-.786.786a10.673 10.673 0 0 0-.242-.047h-.002l-.031-.006-.036-.007-.027-.005-.028-.004-6.858-.98a2 2 0 0 0-.566 0l-6.858.98-.028.004-.027.005-.067.013a6.93 6.93 0 0 0-.338.067c-.166.04-.406.112-.641.269C3.19 3.746 3 4.359 3 5c0 .5 0 2.067.013 3.602.006.767.015 1.53.03 2.151.013.591.032 1.124.066 1.38.33 2.474 1.052 4.182 1.875 5.469l-2.691 2.69a1 1 0 1 0 1.414 1.415l18-18zM6.44 16.147l1.454-1.455c-.314-.538-.557-1.172-.794-2.592C7 11.5 7 6.7 7 6.7l5-.7v4.586l5.754-5.754L12 4.01l-6.833.976c-.046.01-.094.018-.133.025L5 5.017c0 .518 0 2.059.012 3.569.007.763.016 1.515.03 2.122.015.635.033 1.04.05 1.16.255 1.916.765 3.261 1.348 4.278z" fill="#0C0C0D" fill-opacity=".8"/><path d="M18.981 9.258l2.015-2.014-.008 1.358c-.007.767-.016 1.53-.03 2.151-.014.591-.033 1.124-.067 1.38-.426 3.193-1.505 5.11-2.61 6.492-2.006 2.507-5.26 3.206-5.96 3.335a1.77 1.77 0 0 1-.641 0c-.487-.09-2.21-.455-3.888-1.513l1.46-1.459a9.791 9.791 0 0 0 2.748.997c.704-.135 3.23-.75 4.72-2.61.894-1.118 1.815-2.7 2.189-5.507.016-.12.035-.525.05-1.16.009-.427.016-.926.022-1.45z" fill="#0C0C0D" fill-opacity=".8"/></svg>