<!-- This Source Code Form is subject to the terms of the Mozilla Public
   - License, v. 2.0. If a copy of the MPL was not distributed with this
   - file, You can obtain one at http://mozilla.org/MPL/2.0/. -->
<svg width="24" height="24" viewBox="0 0 24 24" fill="none" xmlns="http://www.w3.org/2000/svg"><path fill-rule="evenodd" clip-rule="evenodd" d="M19.828 4.17c-5.648.888-10.47 5.14-13.504 9.864l.05.08c.397.622.933 1.364 1.54 1.972.608.607 1.35 1.143 1.972 1.54l.02.012c4.831-3.422 9.036-7.936 9.922-13.468zM14 17v3a1 1 0 0 1-.553.894l-2 1a1 1 0 0 1-1.341-.447l-.966-1.931c-.72-.436-1.765-1.14-2.64-2.016-.875-.875-1.58-1.92-2.016-2.64l-1.931-.966a1 1 0 0 1-.476-1.279l.833-2A1 1 0 0 1 3.833 10h2.983C10.315 5.833 15.24 2.393 21 2.031a.91.91 0 0 1 .968.97C21.607 8.73 18.166 13.39 14 16.98V17zm1.773-10.395l-.007.003c-.434.196-1.243.562-1.89 1.063-.218.17-.218.487-.022.683l1.793 1.792c.195.196.502.187.656-.042.333-.496.776-1.285 1.084-1.881a.492.492 0 0 0 .001-.447l-.09-.18a2 2 0 0 0-.894-.894l-.18-.09a.526.526 0 0 0-.45-.007z" fill="#0C0C0D" fill-opacity=".8"/></svg>