<!-- This Source Code Form is subject to the terms of the Mozilla Public
   - License, v. 2.0. If a copy of the MPL was not distributed with this
   - file, You can obtain one at http://mozilla.org/MPL/2.0/. --> 
<svg xmlns="http://www.w3.org/2000/svg" viewBox="0 0 16 16"><path d="M6,12a6,6,0,0,1,6-6V5a1,1,0,0,0-1-1H7.75A.77.77,0,0,1,7,3.25C7,2.5,8,2.47,8,1.5S7.1,0,6,0,4,.64,4,1.5s1,1,1,1.75A.77.77,0,0,1,4.25,4H1A1,1,0,0,0,0,5V7.25A.77.77,0,0,0,.75,8C1.5,8,1.53,7,2.5,7S4,7.9,4,9s-.64,2-1.5,2-1-1-1.75-1a.77.77,0,0,0-.75.75V15a1,1,0,0,0,1,1H4.25A.77.77,0,0,0,5,15.25c0-.75-1-.78-1-1.75S4.9,12,6,12Z" fill="context-fill" /><path d="M12,8a4,4,0,1,0,4,4A4,4,0,0,0,12,8Zm2.2,4.46-1.92,1.92a.38.38,0,0,1-.54,0L9.8,12.46a.38.38,0,0,1,.54-.54l1.27,1.27V9.88a.38.38,0,0,1,.77,0v3.3l1.27-1.27a.38.38,0,0,1,.54.54Z" fill="context-fill" /></svg>