<!-- This Source Code Form is subject to the terms of the Mozilla Public
   - License, v. 2.0. If a copy of the MPL was not distributed with this
   - file, You can obtain one at http://mozilla.org/MPL/2.0/. --> 
<svg xmlns="http://www.w3.org/2000/svg" viewBox="0 0 16 16"><path d="M13.9,9.81a1.23,1.23,0,0,0,0-.17l0-.08A5.67,5.67,0,0,0,11.5,6.2a1.17,1.17,0,0,1-.56-.95V3a1,1,0,0,0-1-1H6.06a1,1,0,0,0-1,1V5.25a1.17,1.17,0,0,1-.56,1A5.66,5.66,0,0,0,2.15,9.58l0,.12a.53.53,0,0,0,0,.11,5.35,5.35,0,0,0-.11,1A5.65,5.65,0,0,0,5.28,15.9a1,1,0,0,0,.44.1h4.57a1,1,0,0,0,.44-.1A5.65,5.65,0,0,0,14,10.83,5.3,5.3,0,0,0,13.9,9.81Zm-8.27-2a3.18,3.18,0,0,0,1.43-2.6V4H8.94V5.25a3.18,3.18,0,0,0,1.43,2.6,3.68,3.68,0,0,1,1.54,2.24h0v0c0,.08,0,.15,0,.22a2.82,2.82,0,0,1-3.68-.59A3.48,3.48,0,0,0,4.56,9,3.76,3.76,0,0,1,5.63,7.85Z" fill="context-fill" /></svg>