<!-- This Source Code Form is subject to the terms of the Mozilla Public
   - License, v. 2.0. If a copy of the MPL was not distributed with this
   - file, You can obtain one at http://mozilla.org/MPL/2.0/. --> 
<svg version="1.1" id="plugins-icon" xmlns="http://www.w3.org/2000/svg" xmlns:xlink="http://www.w3.org/1999/xlink" x="0px" y="0px" viewBox="0 0 16 16" enable-background="new 0 0 16 16" xml:space="preserve"><path id="plugins" d="M0,13c0,1.7,1.3,3,3,3h10.8c1.2,0,2.2-1,2.2-2.2V8.2C16,7,15,6,13.8,6l0,0l0,0C13.4,6,13,5.6,13,5.2V4.8l0,0 C13,4.4,12.6,4,12.2,4H9.8c0,0,0,0,0,0C9.4,4,9,4.4,9,4.8V6H7V4.8C7,4.4,6.6,4,6.2,4c0,0,0,0,0,0H3.8C3.4,4,3,4.4,3,4.8l0,0v0.4 C3,5.6,2.6,6,2.2,6l0,0l0,0C1,6,0,7,0,8.2L0,13z M2.8,14L2.8,14C2.4,14,2,13.6,2,13.2V8h12v5.2l0,0c0,0.4-0.4,0.8-0.8,0.8H2.8z"/></svg>
