<!-- This Source Code Form is subject to the terms of the Mozilla Public
   - License, v. 2.0. If a copy of the MPL was not distributed with this
   - file, You can obtain one at http://mozilla.org/MPL/2.0/. -->
<svg xmlns="http://www.w3.org/2000/svg" viewBox="0 0 16 16"><path d="M16 13V9a3 3 0 0 0-3-3V5a1 1 0 0 0-1-1H9.8a.8.8 0 0 0-.8.8V6H7V4.8a.8.8 0 0 0-.8-.8H3.8a.8.8 0 0 0-.8.8v.4a.8.8 0 0 1-.8.8A2.2 2.2 0 0 0 0 8.2v5.6A2.2 2.2 0 0 0 2.2 16H13a3 3 0 0 0 3-3zM2.8 14a.8.8 0 0 1-.8-.8V8h12v5.2a.8.8 0 0 1-.8.8z" fill="context-fill"/></svg>