<!-- This Source Code Form is subject to the terms of the Mozilla Public
   - License, v. 2.0. If a copy of the MPL was not distributed with this
   - file, You can obtain one at http://mozilla.org/MPL/2.0/. --> 
<svg xmlns="http://www.w3.org/2000/svg" viewBox="0 0 16 16"><path d="M4,15V14a1,1,0,0,0-1-1H3a3,3,0,0,1-3-3V4A3,3,0,0,1,3,1H13a3,3,0,0,1,3,3v6a3,3,0,0,1-3,3H10.34a3,3,0,0,0-1.8.6l-2.93,2.2A1,1,0,0,1,4,15Zm1-4a1,1,0,0,1,1,1v1l2.4-1.8A1,1,0,0,1,9,11h4a1,1,0,0,0,1-1V4a1,1,0,0,0-1-1H3A1,1,0,0,0,2,4v6a1,1,0,0,0,1,1Z" fill="context-fill"/></svg>