<svg xmlns="http://www.w3.org/2000/svg" viewBox="0 0 32 32"><defs><style>.cls-1{fill-rule:evenodd;}</style></defs><title>firefox</title><g id="General-icons"><path class="cls-1" d="M24.66,24.94c-3.28,0-5.55-3.86-8.69-3.86s-5.61,3.86-8.69,3.86c-4,0-7-3.75-7.08-10.16,0-4,1.19-5.26,6.44-5.26s6.79,2.1,9.34,2.1,4.08-2.1,9.34-2.1,6.47,1.27,6.44,5.26C31.69,21.2,28.71,24.94,24.66,24.94ZM9.21,14.43c-3.19.14-4.51,2-4.51,2.45s2.12,1.75,4.19,1.75,4.51-.74,4.51-1.4S12.22,14.3,9.21,14.43Zm13.52,0c-3-.13-4.19,2.07-4.19,2.8s2.44,1.4,4.51,1.4,4.19-1.29,4.19-1.75S25.92,14.56,22.73,14.43Z"/></g></svg>