<svg xmlns="http://www.w3.org/2000/svg" viewBox="0 0 32 32"><defs><style>.cls-1{fill-rule:evenodd;}</style></defs><title>firefox</title><g id="Action-icons"><path class="cls-1" d="M20.38,19.43V7.14a2,2,0,0,0-2-2V17.38a2,2,0,0,1-2,2H8.09a2,2,0,0,0,2,2h8.19A2,2,0,0,0,20.38,19.43Zm4.09,4.09V11.24a2,2,0,0,0-2-2V21.47a2,2,0,0,1-2,2H12.19a2,2,0,0,0,2,2h8.19A2,2,0,0,0,24.47,23.52Zm2-10.24V25.57a2,2,0,0,1-2,2H16.28a2,2,0,0,0,2,2h8.19a2,2,0,0,0,2-2V15.33A2,2,0,0,0,26.52,13.28Zm-10.24,2V3a2,2,0,0,0-2-2H6A2,2,0,0,0,4,3V15.33a2,2,0,0,0,2,2h8.19A2,2,0,0,0,16.28,15.33Z"/></g></svg>