<svg width="24" height="24" viewBox="0 0 24 24" xmlns="http://www.w3.org/2000/svg">
  <path d="M14.38 18.5c.015.324.23.604.54.7l2.51.68c.55.182.957.65 1.06 1.22l.05.39-3.89-.53c-.626-.11-1.22-.356-1.74-.72l-5.75-4.39c-2.702-.178-4.92-2.205-5.34-4.88H1c-.552 0-1-.448-1-1l2.9-3.24c1.13-1.46 2.854-2.338 4.7-2.39.257 0 .515.016.77.05.294.024.585.074.87.15 3.75 1 6.5 5.84 6.5 5.84.28.398.68.696 1.14.85h.17c.45.097.916-.056 1.22-.4l.78-1-2.47-1.2c-3.38-1.46-2.46-5.71-2.46-5.71 0-.26.23-.32.42-.14l5.32 5-4.31-4.81c.017-.527.33-1 .81-1.22l4.17 6.65.33.31 2.19 1.54c.54.427.874 1.063.92 1.75v2.77l-.16.13c-.472.346-1.09.418-1.63.19l-.75-.36c-.846-.357-1.818-.235-2.55.32l-2.18 1.82c-.273.22-.572.404-.89.55-.023-3.417-1.758-6.594-4.62-8.46-.27-.16-.66.31-.47.48 2.475 2.112 3.834 5.25 3.68 8.5v.48l-.02.08zm8.38-5.42c.198 0 .377-.12.453-.302.076-.184.034-.394-.107-.534-.14-.14-.35-.183-.534-.107-.183.076-.302.255-.302.453 0 .27.22.49.49.49zm-18 9.14v-.52c.025-.568.394-1.063.93-1.25.536-.187 2.7-.66 3.43-1.84l2.06 1.63c-2.046.947-4.208 1.62-6.43 2l.01-.02z"/>
</svg>
