<svg width="24" height="24" viewBox="0 0 24 24" xmlns="http://www.w3.org/2000/svg">
  <path d="M4.13 16.335c-.065.816-.746 1.445-1.565 1.445-.82 0-1.5-.63-1.565-1.445v-8.31c.065-.816.746-1.445 1.565-1.445.82 0 1.5.63 1.565 1.445v8.31zm6.29 3.62c-.065.816-.746 1.445-1.565 1.445-.82 0-1.5-.63-1.565-1.445v-15.9c.065-.816.746-1.445 1.565-1.445.82 0 1.5.63 1.565 1.445v15.9zm6.29-2.9c-.065.816-.746 1.445-1.565 1.445-.82 0-1.5-.63-1.565-1.445v-9.61C13.645 6.63 14.326 6 15.145 6c.82 0 1.5.63 1.565 1.445v9.61zm6.29-1.82c-.065.816-.746 1.445-1.565 1.445-.82 0-1.5-.63-1.565-1.445v-6.47c.065-.816.746-1.445 1.565-1.445.82 0 1.5.63 1.565 1.445v6.47z"/>
</svg>
