<svg xmlns="http://www.w3.org/2000/svg" viewBox="0 0 32 32"><title>firefox</title><g id="Media-icons"><g id="chapter"><path d="M10.19,2.53H6.32A3.87,3.87,0,0,0,2.45,6.4v3.87a3.87,3.87,0,0,0,3.87,3.87h3.87a3.87,3.87,0,0,0,3.87-3.87V6.4A3.87,3.87,0,0,0,10.19,2.53Zm0,15.49H6.32a3.87,3.87,0,0,0-3.87,3.87v3.87a3.87,3.87,0,0,0,3.87,3.87h3.87a3.87,3.87,0,0,0,3.87-3.87V21.89A3.87,3.87,0,0,0,10.19,18ZM25.68,2.53H21.81A3.87,3.87,0,0,0,17.94,6.4v3.87a3.87,3.87,0,0,0,3.87,3.87h3.87a3.87,3.87,0,0,0,3.87-3.87V6.4A3.87,3.87,0,0,0,25.68,2.53Zm0,15.49H21.81a3.87,3.87,0,0,0-3.87,3.87v3.87a3.87,3.87,0,0,0,3.87,3.87h3.87a3.87,3.87,0,0,0,3.87-3.87V21.89A3.87,3.87,0,0,0,25.68,18Z"/></g></g></svg>