<svg xmlns="http://www.w3.org/2000/svg" width="16" height="16" viewBox="0 0 16 16">
  <path d="M3.666667,12 C3.666667,12.3666667 3.966667,12.6666667 4.333333,12.6666667 L5,12.6666667 L5,15 C5,15.5533333 5.446667,16 6,16 C6.553333,16 7,15.5533333 7,15 L7,12.6666667 L8.333333,12.6666667 L8.333333,15 C8.333333,15.5533333 8.78,16 9.333333,16 C9.886667,16 10.333333,15.5533333 10.333333,15 L10.333333,12.6666667 L11,12.6666667 C11.366667,12.6666667 11.666667,12.3666667 11.666667,12 L11.666667,5.33333333 L3.666667,5.33333333 L3.666667,12 Z M2,5.33333333 C1.446667,5.33333333 1,5.78 1,6.3333333 L1,11 C1,11.5533333 1.446667,12 2,12 C2.553333,12 3,11.5533333 3,11 L3,6.3333333 C3,5.78 2.553333,5.33333333 2,5.33333333 Z M13.333333,5.33333333 C12.78,5.33333333 12.333333,5.78 12.333333,6.3333333 L12.333333,11 C12.333333,11.5533333 12.78,12 13.333333,12 C13.886667,12 14.333333,11.5533333 14.333333,11 L14.333333,6.3333333 C14.333333,5.78 13.886667,5.33333333 13.333333,5.33333333 Z M10.02,1.44 L10.886667,0.57333333 C11.02,0.44 11.02,0.23333333 10.886667,0.1 C10.753333,-0.03333333 10.546667,-0.03333333 10.413333,0.1 L9.426667,1.08666667 C8.9,0.82 8.3,0.66666667 7.666667,0.66666667 C7.026667,0.66666667 6.426667,0.82 5.893333,1.08666667 L4.9,0.1 C4.766667,-0.03333333 4.56,-0.03333333 4.426667,0.1 C4.293333,0.23333333 4.293333,0.44 4.426667,0.57333333 L5.3,1.44666667 C4.313333,2.17333333 3.666667,3.34 3.666667,4.66666667 L11.666667,4.66666667 C11.666667,3.34 11.02,2.16666667 10.02,1.44 Z M6.333333,3.33333333 L5.666667,3.33333333 L5.666667,2.66666667 L6.333333,2.66666667 L6.333333,3.33333333 Z M9.666667,3.33333333 L9,3.33333333 L9,2.66666667 L9.666667,2.66666667 L9.666667,3.33333333 Z"/>
</svg>
