<svg xmlns="http://www.w3.org/2000/svg" width="14" height="16" viewBox="0 0 14 16">
  <path d="M154.666667,16 C154.666667,16.3666667 154.966667,16.6666667 155.333333,16.6666667 L156,16.6666667 L156,19 C156,19.5533333 156.446667,20 157,20 C157.553333,20 158,19.5533333 158,19 L158,16.6666667 L159.333333,16.6666667 L159.333333,19 C159.333333,19.5533333 159.78,20 160.333333,20 C160.886667,20 161.333333,19.5533333 161.333333,19 L161.333333,16.6666667 L162,16.6666667 C162.366667,16.6666667 162.666667,16.3666667 162.666667,16 L162.666667,9.33333333 L154.666667,9.33333333 L154.666667,16 Z M153,9.33333333 C152.446667,9.33333333 152,9.78 152,10.3333333 L152,15 C152,15.5533333 152.446667,16 153,16 C153.553333,16 154,15.5533333 154,15 L154,10.3333333 C154,9.78 153.553333,9.33333333 153,9.33333333 Z M164.333333,9.33333333 C163.78,9.33333333 163.333333,9.78 163.333333,10.3333333 L163.333333,15 C163.333333,15.5533333 163.78,16 164.333333,16 C164.886667,16 165.333333,15.5533333 165.333333,15 L165.333333,10.3333333 C165.333333,9.78 164.886667,9.33333333 164.333333,9.33333333 Z M161.02,5.44 L161.886667,4.57333333 C162.02,4.44 162.02,4.23333333 161.886667,4.1 C161.753333,3.96666667 161.546667,3.96666667 161.413333,4.1 L160.426667,5.08666667 C159.9,4.82 159.3,4.66666667 158.666667,4.66666667 C158.026667,4.66666667 157.426667,4.82 156.893333,5.08666667 L155.9,4.1 C155.766667,3.96666667 155.56,3.96666667 155.426667,4.1 C155.293333,4.23333333 155.293333,4.44 155.426667,4.57333333 L156.3,5.44666667 C155.313333,6.17333333 154.666667,7.34 154.666667,8.66666667 L162.666667,8.66666667 C162.666667,7.34 162.02,6.16666667 161.02,5.44 Z M157.333333,7.33333333 L156.666667,7.33333333 L156.666667,6.66666667 L157.333333,6.66666667 L157.333333,7.33333333 Z M160.666667,7.33333333 L160,7.33333333 L160,6.66666667 L160.666667,6.66666667 L160.666667,7.33333333 Z" transform="translate(-152 -4)"/>
</svg>
