<svg xmlns="http://www.w3.org/2000/svg" width="113" height="14" viewBox="0 0 113 14">
  <path fill-rule="evenodd" d="M4.424,12.024 C2.968,12.024 1.912,11.08 1.912,8.824 C1.912,6.6 2.952,5.528 4.408,5.528 C5.16,5.528 5.864,5.784 6.584,6.264 L7.24,5.384 C6.456,4.728 5.512,4.392 4.424,4.392 C1.912,4.392 0.456,6.296 0.456,8.824 C0.456,11.464 1.896,13.176 4.424,13.176 C5.4,13.176 6.536,12.792 7.256,12.168 L6.616,11.288 C5.976,11.72 5.272,12.024 4.424,12.024 Z M13.416,4.392 C15.784,4.392 17.032,6.12 17.032,8.776 C17.032,11.368 15.752,13.176 13.4,13.176 C11.032,13.176 9.768,11.448 9.768,8.792 C9.768,6.2 11.048,4.392 13.416,4.392 Z M13.416,5.496 C11.96,5.496 11.224,6.552 11.224,8.792 C11.224,11.032 11.944,12.072 13.4,12.072 C14.856,12.072 15.576,11.032 15.576,8.776 C15.576,6.552 14.856,5.496 13.416,5.496 Z M19.8,13 L21.144,13 L21.144,6.872 C21.592,6.2 22.44,5.464 23.432,5.464 C24.696,5.464 24.872,6.152 24.872,7.88 L24.872,13 L26.216,13 L26.216,6.888 C26.216,5.32 25.496,4.392 23.848,4.392 C22.856,4.392 21.736,4.888 21.064,5.752 L20.952,4.568 L19.8,4.568 L19.8,13 Z M36.104,12.568 L35.576,11.656 C35.128,11.896 34.584,12.056 33.96,12.056 C32.808,12.056 32.344,11.56 32.344,10.632 L32.344,5.624 L35.096,5.624 L35.272,4.568 L32.344,4.568 L32.344,2.504 L31,2.664 L31,4.568 L29.064,4.568 L29.064,5.624 L31,5.624 L31,10.648 C31,12.12 32.024,13.176 33.832,13.176 C34.632,13.176 35.512,12.952 36.104,12.568 Z M40.072,9.256 C40.136,11.208 41.224,12.056 42.52,12.056 C43.384,12.056 44.024,11.8 44.776,11.304 L45.4,12.2 C44.616,12.808 43.56,13.176 42.52,13.176 C40.056,13.176 38.664,11.416 38.664,8.792 C38.664,6.248 40.088,4.392 42.328,4.392 C44.456,4.392 45.768,5.976 45.768,8.536 C45.768,8.824 45.752,9.08 45.736,9.256 L40.072,9.256 Z M42.344,5.496 C41.096,5.496 40.184,6.376 40.072,8.232 L44.456,8.232 C44.424,6.424 43.624,5.496 42.344,5.496 Z M49.432,13 L51.752,9.384 L54.072,13 L55.704,13 L52.6,8.488 L55.336,4.568 L53.784,4.568 L51.816,7.704 L49.864,4.568 L48.264,4.568 L51,8.552 L47.896,13 L49.432,13 Z M64.904,12.568 L64.376,11.656 C63.928,11.896 63.384,12.056 62.76,12.056 C61.608,12.056 61.144,11.56 61.144,10.632 L61.144,5.624 L63.896,5.624 L64.072,4.568 L61.144,4.568 L61.144,2.504 L59.8,2.664 L59.8,4.568 L57.864,4.568 L57.864,5.624 L59.8,5.624 L59.8,10.648 C59.8,12.12 60.824,13.176 62.632,13.176 C63.432,13.176 64.312,12.952 64.904,12.568 Z M68.2,8.568 L73.8,8.568 L73.8,7.416 L68.2,7.416 L68.2,8.568 Z M82.376,1.016 C80.632,1.016 79.304,1.992 79.304,3.544 L79.304,5.224 L77.304,5.224 L77.304,6.296 L79.304,6.296 L79.304,13 L80.664,13 L80.664,6.296 L83.368,6.296 L83.512,5.224 L80.664,5.224 L80.664,3.512 C80.664,2.584 81.256,2.12 82.424,2.12 C83.064,2.12 83.688,2.232 84.232,2.472 L84.664,1.464 C84.008,1.192 83.288,1.016 82.376,1.016 Z M90.2,0.632 C89.624,0.632 89.24,1.032 89.24,1.576 C89.24,2.12 89.624,2.52 90.2,2.52 C90.792,2.52 91.192,2.12 91.192,1.576 C91.192,1.032 90.792,0.632 90.2,0.632 Z M91.272,4.568 L87.416,4.568 L87.416,5.64 L89.928,5.64 L89.928,11.928 L87.336,11.928 L87.336,13 L93.64,13 L93.64,11.928 L91.272,11.928 L91.272,4.568 Z M99.896,1.176 L95.96,1.176 L95.96,2.248 L98.552,2.248 L98.552,10.856 C98.552,12.312 99.56,13.176 101.048,13.176 C101.912,13.176 102.6,12.984 103.048,12.744 L102.696,11.768 C102.232,11.944 101.784,12.056 101.288,12.056 C100.472,12.056 99.896,11.752 99.896,10.92 L99.896,1.176 Z M109.496,1.176 L105.56,1.176 L105.56,2.248 L108.152,2.248 L108.152,10.856 C108.152,12.312 109.16,13.176 110.648,13.176 C111.512,13.176 112.2,12.984 112.648,12.744 L112.296,11.768 C111.832,11.944 111.384,12.056 110.888,12.056 C110.072,12.056 109.496,11.752 109.496,10.92 L109.496,1.176 Z"/>
</svg>
