<svg xmlns="http://www.w3.org/2000/svg" xmlns:xlink="http://www.w3.org/1999/xlink" width="16" height="12" viewBox="0 0 16 12">
  <defs>
    <path id="desktop-16-a" d="M15.5,12 L15,12 L15,3 C15,2.44771525 14.5522847,2 14,2 L2,2 C1.44771525,2 1,2.44771525 1,3 L1,12 L0.5,12 C0.223857625,12 3.38176876e-17,12.2238576 0,12.5 L0,13.5 C3.38176876e-17,13.7761424 0.223857625,14 0.5,14 L15.5,14 C15.7761424,14 16,13.7761424 16,13.5 L16,12.5 C16,12.2238576 15.7761424,12 15.5,12 Z M10,13 L6,13 L6,12 L10,12 L10,13 Z M13,11 L3,11 L3,4 L13,4 L13,11 Z"/>
  </defs>
  <g fill="none" fill-rule="evenodd" transform="translate(0 -2)">
    <rect width="16" height="16"/>
    <mask id="desktop-16-b" fill="#fff">
      <use xlink:href="#desktop-16-a"/>
    </mask>
    <g fill="#000" mask="url(#desktop-16-b)">
      <rect width="16" height="16"/>
    </g>
  </g>
</svg>
