<svg xmlns="http://www.w3.org/2000/svg" width="14" height="16" viewBox="0 0 14 16">
  <path d="M295.034146,16.3171707 C294.795122,16.8693659 294.512195,17.3776585 294.18439,17.8449756 C293.737561,18.4820488 293.371707,18.9230244 293.089756,19.1679024 C292.652683,19.5698537 292.18439,19.7757073 291.682927,19.7874146 C291.322927,19.7874146 290.88878,19.6849756 290.383415,19.4771707 C289.87639,19.2703415 289.410439,19.1679024 288.98439,19.1679024 C288.537561,19.1679024 288.058341,19.2703415 287.545756,19.4771707 C287.03239,19.6849756 286.618829,19.7932683 286.302634,19.804 C285.821756,19.8244878 285.342439,19.6127805 284.864,19.1679024 C284.558634,18.901561 284.176683,18.4449756 283.719122,17.7981463 C283.228195,17.1074146 282.824585,16.306439 282.50839,15.3932683 C282.169756,14.4069268 282,13.4518049 282,12.527122 C282,11.4679024 282.228878,10.5543415 282.687317,9.78878049 C283.04761,9.17385366 283.526927,8.68878049 284.126829,8.33268293 C284.726732,7.97658537 285.374927,7.79512195 286.072976,7.7835122 C286.454927,7.7835122 286.955805,7.90165854 287.578244,8.13385366 C288.198927,8.36682927 288.597463,8.48497561 288.772195,8.48497561 C288.902829,8.48497561 289.345561,8.34682927 290.096098,8.07141463 C290.805854,7.816 291.404878,7.7102439 291.89561,7.75190244 C293.225366,7.85921951 294.22439,8.38341463 294.88878,9.32780488 C293.699512,10.0483902 293.11122,11.0576585 293.122927,12.3523902 C293.133659,13.360878 293.499512,14.2000976 294.218537,14.866439 C294.54439,15.1757073 294.908293,15.4147317 295.313171,15.5844878 C295.225366,15.839122 295.132683,16.0830244 295.034146,16.3171707 Z M291.98439,4.31619512 C291.98439,5.1066439 291.69561,5.84468293 291.12,6.52780488 C290.425366,7.33990244 289.585171,7.80917073 288.674049,7.73512195 C288.662439,7.64029268 288.655707,7.5404878 288.655707,7.43560976 C288.655707,6.67678049 288.986049,5.86468293 289.572683,5.20068293 C289.865561,4.8644878 290.238049,4.58494634 290.689756,4.36195122 C291.140488,4.14228293 291.566829,4.0208 291.967805,4 C291.979512,4.10566829 291.98439,4.21134634 291.98439,4.31618537 L291.98439,4.31619512 Z" transform="translate(-282 -4)"/>
</svg>
