<svg xmlns="http://www.w3.org/2000/svg" width="16" height="16" viewBox="0 0 16 16">
  <path d="M14.034146,12.3171707 C13.795122,12.8693659 13.512195,13.3776585 13.18439,13.8449756 C12.737561,14.4820488 12.371707,14.9230244 12.089756,15.1679024 C11.652683,15.5698537 11.18439,15.7757073 10.682927,15.7874146 C10.322927,15.7874146 9.88878,15.6849756 9.383415,15.4771707 C8.87639,15.2703415 8.410439,15.1679024 7.98439,15.1679024 C7.537561,15.1679024 7.058341,15.2703415 6.545756,15.4771707 C6.03239,15.6849756 5.618829,15.7932683 5.302634,15.804 C4.821756,15.8244878 4.342439,15.6127805 3.864,15.1679024 C3.558634,14.901561 3.176683,14.4449756 2.719122,13.7981463 C2.228195,13.1074146 1.824585,12.306439 1.50839,11.3932683 C1.169756,10.4069268 1,9.4518049 1,8.527122 C1,7.4679024 1.228878,6.5543415 1.687317,5.78878049 C2.04761,5.17385366 2.526927,4.68878049 3.126829,4.33268293 C3.726732,3.97658537 4.374927,3.79512195 5.072976,3.7835122 C5.454927,3.7835122 5.955805,3.90165854 6.578244,4.13385366 C7.198927,4.36682927 7.597463,4.48497561 7.772195,4.48497561 C7.902829,4.48497561 8.345561,4.34682927 9.096098,4.07141463 C9.805854,3.816 10.404878,3.7102439 10.89561,3.75190244 C12.225366,3.85921951 13.22439,4.38341463 13.88878,5.32780488 C12.699512,6.0483902 12.11122,7.0576585 12.122927,8.3523902 C12.133659,9.360878 12.499512,10.2000976 13.218537,10.866439 C13.54439,11.1757073 13.908293,11.4147317 14.313171,11.5844878 C14.225366,11.839122 14.132683,12.0830244 14.034146,12.3171707 Z M10.98439,0.31619512 C10.98439,1.1066439 10.69561,1.84468293 10.12,2.52780488 C9.425366,3.33990244 8.585171,3.80917073 7.674049,3.73512195 C7.662439,3.64029268 7.655707,3.5404878 7.655707,3.43560976 C7.655707,2.67678049 7.986049,1.86468293 8.572683,1.20068293 C8.865561,0.8644878 9.238049,0.58494634 9.689756,0.36195122 C10.140488,0.14228293 10.566829,0.0208 10.967805,0 C10.979512,0.10566829 10.98439,0.21134634 10.98439,0.31618537 L10.98439,0.31619512 Z"/>
</svg>
