<!-- This Source Code Form is subject to the terms of the Mozilla Public
   - License, v. 2.0. If a copy of the MPL was not distributed with this
   - file, You can obtain one at http://mozilla.org/MPL/2.0/. -->
<svg xmlns="http://www.w3.org/2000/svg" width="12" height="12" viewBox="0 0 12 12"><path fill="context-fill" d="M4.586 6L3.293 7.293a1 1 0 0 0 1.414 1.414L6 7.414l1.293 1.293a1 1 0 0 0 1.414-1.414L7.414 6l1.293-1.293a1 1 0 0 0-1.414-1.414L6 4.586 4.707 3.293a1 1 0 0 0-1.414 1.414L4.586 6zM6 0a6 6 0 1 1 0 12A6 6 0 0 1 6 0z"/></svg>