<!-- This Source Code Form is subject to the terms of the Mozilla Public
   - License, v. 2.0. If a copy of the MPL was not distributed with this
   - file, You can obtain one at http://mozilla.org/MPL/2.0/. -->
<svg xmlns="http://www.w3.org/2000/svg" width="16" height="16" viewBox="0 0 16 16" fill="context-fill #0b0b0b"><path d="M13 1a3 3 0 0 1 3 3v8a3 3 0 0 1-3 3H3a3 3 0 0 1-3-3V4a3 3 0 0 1 3-3h10zm0 2H3a1 1 0 0 0-1 1v1h12V4a1 1 0 0 0-1-1zm1 3H2v6a1 1 0 0 0 1 1h10a1 1 0 0 0 1-1z"/><path d="M4.5 7.5l2 2-2 2" stroke="context-fill" stroke-linecap="round" stroke-linejoin="round" fill="none"/></svg>