<!-- This Source Code Form is subject to the terms of the Mozilla Public
   - License, v. 2.0. If a copy of the MPL was not distributed with this
   - file, You can obtain one at http://mozilla.org/MPL/2.0/. -->
<svg xmlns="http://www.w3.org/2000/svg" width="16" height="16" viewBox="0 0 16 16" fill="context-fill" fill-opacity="context-fill-opacity"><path d="M15.379 8a.142.142 0 0 0 .02 0 7.978 7.978 0 0 1-1.858-.356.981.981 0 0 1-.054.847 1 1 0 1 1-1.735-.994.981.981 0 0 1 .481-.407A8.02 8.02 0 0 1 8 .61v.025C8-.474 4.753.174 5.179 1.2 4.753.174 2 2.016 2.788 2.8 2 2.016.167 4.77 1.193 5.193.167 4.77-.476 8.016.634 8.015c-1.11 0-.461 3.247.564 2.821-1.025.426.817 3.175 1.6 2.39-.784.785 1.969 2.621 2.393 1.6-.424 1.025 2.823 1.668 2.822.558 0 1.11 3.246.461 2.821-.564.425 1.025 3.175-.816 2.39-1.6.785.784 2.621-1.97 1.6-2.394 1.022.42 1.665-2.826.555-2.826zm-11.12.5a1 1 0 1 1-.37-1.365 1 1 0 0 1 .37 1.365zm1.955 4.361a1 1 0 1 1 .36-1.367 1 1 0 0 1-.36 1.369zM5.706 5a1 1 0 1 1 1-1 1 1 0 0 1-1 1zM8 9a1 1 0 1 1 1-1 1 1 0 0 1-1 1zm2.306 4a1 1 0 1 1 1-1 1 1 0 0 1-1 1z"/></svg>