<!-- This Source Code Form is subject to the terms of the Mozilla Public
   - License, v. 2.0. If a copy of the MPL was not distributed with this
   - file, You can obtain one at http://mozilla.org/MPL/2.0/. -->
<svg xmlns="http://www.w3.org/2000/svg" width="16" height="16" viewBox="0 0 16 16"><path d="M12.112 6.969L9.217 9.862l-.617.618a.852.852 0 0 1-.235.156l-3.072 3.071A7 7 0 0 0 15 7.25V4l-2.72 2.72a.854.854 0 0 1-.168.249zm2.595-5.676a1 1 0 0 0-1.414 0L12.586 2H2.75A1.749 1.749 0 0 0 1 3.75v3.5a6.953 6.953 0 0 0 1.739 4.6l-1.446 1.443a1 1 0 1 0 1.414 1.414l12-12a1 1 0 0 0 0-1.414zM3.861 6.969l.014-.01A.875.875 0 0 1 4.5 5.472a.86.86 0 0 1 .661.322l1.812 1.819-1.238 1.238z" fill="context-fill"/></svg>