<!-- This Source Code Form is subject to the terms of the Mozilla Public
   - License, v. 2.0. If a copy of the MPL was not distributed with this
   - file, You can obtain one at http://mozilla.org/MPL/2.0/. -->
<svg height="16" viewBox="0 0 16 16" width="16" xmlns="http://www.w3.org/2000/svg"><path fill="context-fill" fill-opacity="context-fill-opacity" d="M11 7.003a1 1 0 0 1-1-1v-1H3v8a1 1 0 0 0 1 1h2a1 1 0 1 1 0 2H3a2 2 0 0 1-2-2v-10a2 2 0 0 1 2-2h1.05a2.5 2.5 0 0 1 4.9 0H10a2 2 0 0 1 2 2v2a1 1 0 0 1-1 1zm-1-3v-1H8.949a1 1 0 0 1-.98-.8 1.5 1.5 0 0 0-2.939 0 1 1 0 0 1-.98.8H3v1zm-3.5-2a.5.5 0 1 1 0 1 .5.5 0 0 1 0-1zm-2 5a.5.5 0 1 1 0-1h4a.5.5 0 0 1 0 1zm0 2a.5.5 0 1 1 0-1h2a.5.5 0 0 1 0 1zm0 2a.5.5 0 1 1 0-1h1a.5.5 0 1 1 0 1zM11 16a4 4 0 1 1 0-8 4 4 0 0 1 0 8zm.46-2a.46.46 0 1 0-.92 0 .46.46 0 0 0 .92 0zm-1.06-3c0-.306.246-.6.6-.6s.6.294.6.6c0 .124-.058.254-.163.39a1.94 1.94 0 0 1-.228.24l-.092.087a1.859 1.859 0 0 0-.298.32c-.131.19-.219.435-.219.763a.4.4 0 1 0 .8 0c0-.172.042-.258.078-.309a.611.611 0 0 1 .078-.09l.052-.048h.001l.004-.004c.02-.018.045-.041.07-.066l.034-.032a3.22 3.22 0 0 0 .35-.37c.16-.205.333-.505.333-.881 0-.694-.554-1.4-1.4-1.4s-1.4.706-1.4 1.4a.4.4 0 1 0 .8 0z"/></svg>