<!-- This Source Code Form is subject to the terms of the Mozilla Public
   - License, v. 2.0. If a copy of the MPL was not distributed with this
   - file, You can obtain one at http://mozilla.org/MPL/2.0/. -->
<svg xmlns="http://www.w3.org/2000/svg" width="16" height="16" viewBox="0 0 16 16" fill="context-fill" fill-opacity="context-fill-opacity"><path d="M4.414 0C2.8.2 1.766 2.521 2.045 4.742c.143 1.133.828 1.675 1.028 3.707l.052.536A18.56 18.56 0 0 0 6.6 8.8a4.988 4.988 0 0 1-.055-1.01 25.267 25.267 0 0 0 .432-3.949C6.724 1.833 5.853-.177 4.414 0zm2.352 9.771A18.373 18.373 0 0 1 3.854 10c-.221 0-.432 0-.636-.01a8.709 8.709 0 0 0 .2 1.351c.165.659.71 1.8 1.944 1.635a1.675 1.675 0 0 0 1.58-2.076 14.287 14.287 0 0 0-.176-1.129zM11.588 3c-1.439-.18-2.311 1.83-2.564 3.838a25.267 25.267 0 0 0 .432 3.949 4.938 4.938 0 0 1-.058 1 18.45 18.45 0 0 0 3.478.193l.052-.537c.2-2.032.885-2.574 1.028-3.707C14.235 5.521 13.2 3.2 11.588 3zm-2.352 9.767c-.069.365-.136.737-.177 1.13a1.675 1.675 0 0 0 1.579 2.079c1.235.16 1.779-.976 1.944-1.635a8.594 8.594 0 0 0 .2-1.35c-.2.005-.4.009-.606.009a18.258 18.258 0 0 1-2.94-.233z"/></svg>