<!-- This Source Code Form is subject to the terms of the Mozilla Public
   - License, v. 2.0. If a copy of the MPL was not distributed with this
   - file, You can obtain one at http://mozilla.org/MPL/2.0/. -->
<svg xmlns="http://www.w3.org/2000/svg" width="32" height="32" viewBox="0 0 32 32">
  <path fill="#144787" d="M15.953 30c-7.732 0-14-6.268-14-14s6.268-14 14-14 14 6.268 14 14-6.268 14-14 14zM16 4C9.373 4 4 9.373 4 16s5.373 12 12 12 12-5.373 12-12S22.627 4 16 4zm11.085 12.311c.057.341 0 .878-.143 1.172-.057.475-.158.987-.381 1.448-.154.323-.372.867-.789.915-.126.012-.453.368-.489.309-.075-.127-.128-.286-.284-.346-.126-.058-.009-.111-.104-.166-.067-.036-.079-.116-.092-.191a.397.397 0 0 0-.135.04c-.088.051-.14.144-.223.201-.054-.022-.145-.062-.138-.132-.072.066-.149.201-.219.099-.058-.084-.017-.201-.02-.293-.004-.092-.09-.228-.185-.113-.067.08-.114.091-.218.111-.095.02-.169.084-.27.085-.239.006-.219.113-.278.294-.054.158-.272.176-.367.306-.05.067-.201.381-.329.268-.102-.091.16-.33.16-.45 0-.101-.083-.159-.106-.25-.018-.066.004-.12-.072-.155.045-.087.097-.224.052-.321-.057-.127-.266-.012-.316.064-.051.071-.175.317-.291.168-.029-.033-.008-.075-.063-.073-.038 0-.065.024-.083.053-.081-.026-.05-.1-.02-.155.088-.159.099-.335.218-.481.126-.157.32-.25.433-.417.039-.059.108-.17.052-.237-.021-.026-.059-.037-.072-.069-.016-.039.002-.082-.003-.121-.042.017-.088.035-.135.02-.006-.043 0-.089-.011-.133-.056.022-.115.09-.182.075-.063-.013-.055.031-.125.029.059-.093.095-.198.158-.29.036-.054.086-.102.115-.162.068-.142-.072-.255-.049-.393.025-.157.2-.195.336-.181.137.015.29.141.428.091.13-.043.169-.224.132-.34-.044-.13-.209-.166-.198-.325.005-.093.052-.176.034-.269-.014-.075-.052-.142-.07-.217-.043-.181.124-.23.18-.374.028-.076.041-.267.169-.182.113.077.066.253.174.341.126.106.297.036.424-.029.106-.055.268-.11.322-.221.076-.151-.065-.326.126-.422.079-.039.277-.148.367-.113.082.031.111.123.17.182a.617.617 0 0 1 .106-.213c.108-.135.259-.23.254-.418.047-.226-.025-.211-.065-.39-.009-.082-.082-.648.047-.625.293.051.048-.639.005-.752-.014-.04-.08-.093-.127-.115-.128-.118-.203.08-.284.006-.099-.122-.081-.321-.096-.472-.025-.164-.118-.284-.122-.448-.002-.079-.469-.602-.372-.678.058-.033.795.023.755-.033-.122-.179-.072-.354-.315-.452-.154-.064-.257-.233-.406-.306-.072-.035-.376-.259-.118-.275.169-.011-.035-.264-.11-.288-.092-.029-.085.25-.173.007-.019-.04-.381-.497-.39-.453-.012.071.079.169.069.251-.027.226-.351-.199-.34-.182-.06-.066-.299-.243-.327-.323.005.017.108-.173.109-.173.058-.076-.001-.162-.068-.231-.083-.084-.221-.093-.234-.221-.002-.02-.099-.198-.014-.195.07.006.295.19.377.228.225.104.16.173.292.295.185.133.478.294.64.492.025.046.354.383.366.255.004-.043-.115-.38-.163-.397 0 0-.216-.275-.221-.299.001.009-.342-.402-.257-.388.131.024.6.374.571.509-.02.089.157.153.184.235.007.023.319.309.363.329.047.022.208.174.244.219.065.046.117.002.139.118.009.053.093.241.12.277.079.106.133.27.18.394.066.182.025.384.029.572.019.053-.09.117-.083.184.013.106.014.23.029.324.014.097.197.35.167.43-.07.148-.02.132.05.268.047.093-.05.132-.007.25-.183.018-.002.102-.119.144-.106.014-.138-.007-.228.062-.032.023.374.617.448.043.02-.154.185-.306.341-.369.085-.037.166.124.189-.037.005-.045-.081-.191-.039-.211.084-.031.228.63.294.679a.725.725 0 0 1 .299.505c.023.232.444.592.357.805-.061.152-.037.596-.021.764.027.179.085.322.086.514 0 .104-.07.355-.023.443.106.196-.013.484.022.692zm-4.943 6.873c-.03-.059.029-.133.096-.131.016-.044.095-.11.144-.099.034.009.037.046.071.015.033-.029.027-.077.069-.1.111-.068.165.049.102.134-.048.064-.169.112-.244.091-.096-.025-.149.057-.238.09zm1.065-.86c.032-.009.063-.064.099-.055.1.027-.008.217-.018.268-.013.075-.004.226-.119.208l.009-.019a.082.082 0 0 0-.027.002c-.002.008-.009.015-.009.017.005-.044.016-.101-.005-.142-.026-.048-.081-.059-.124-.082-.044-.022-.054-.039-.027-.079.021-.033.055-.091.091-.111.04-.02.087.007.13-.007zm-.364.227c.08-.014.126.031.18.084.061.062.017.137-.061.159-.075.024-.106-.04-.176-.04-.002-.013.002-.029-.004-.039l.002.002c-.014-.073-.034-.147.059-.166zm-1.324 2.211c.048-.035.327-.099.302-.168-.027-.067.012-.097.073-.122.038-.016.072-.067.112-.073.03.073.025.16.129.16a.378.378 0 0 0 .22-.083c.077-.055.084-.146.181-.181.085-.029.151-.065.228-.109.069-.038.13-.12.211-.13.039-.003.136-.009.163.03.04.058-.131.162-.167.191-.038.031-.145.118-.066.168.059.034.145-.028.197-.05.074-.032.157-.056.211-.12.05-.058.065-.137.135-.178a.5.5 0 0 0 .192-.195c.034-.057.03-.119.079-.17.049-.054.029-.115.059-.175.052-.093.09.015.115.053.06-.02.078-.102.132-.137.034-.021.097-.038.113-.08.014-.034.005-.067.036-.096.057-.055.183-.037.255-.071.043-.02.097-.128.149-.115-.091.288-.268.492-.476.709-.207.213-.396.446-.644.615-.253.174-.501.358-.778.496-.275.139-.482.361-.735.53-.561.376-1.154.746-1.8.964-.323.111-.651.241-.983.326-.108.028-.218.051-.327.077-.024.005-.159.055-.177.044-.01-.024-.214.02-.244.036a.713.713 0 0 1-.343.084c-.103 0-.214-.029-.306.02-.032.018-.187.053-.137-.038.027-.05.193-.02.234-.02.101-.002.194-.042.288-.075.12-.04.233-.086.354-.124.066-.02.127-.031.183-.067.097-.064.205-.051.306-.09.068-.025.111-.125.208-.1.049.013.074.035.128.035.07-.002.041-.02.056-.071.018-.07.073-.081.102-.024.038.073.157-.044.207-.057.077-.018.065-.094.172-.091.096.006.159-.074.25-.093.047-.011.169-.007.194-.052a1.012 1.012 0 0 0-.363.069c-.122.049-.237.12-.368.146-.122.021-.25.009-.372.036-.117.026-.221.086-.333.124-.097.035-.221.06-.318.011-.108-.058-.005-.14.068-.159.096-.022.212-.007.295-.067.067-.047.086-.133.106-.206-.043.004-.5.038-.358-.089.065-.06.168-.075.252-.093.094-.02.183-.066.282-.062.123.005.2.095.319.013.07-.048.127-.121.208-.152.079-.032.176.03.248-.023.063-.048.076-.126.162-.148.086-.022.246 0 .261-.127.009-.066-.132-.137-.169-.188a2.078 2.078 0 0 0-.164-.21c-.038-.038-.151-.051-.146-.116.009-.102.166-.097.236-.113.11-.028.192-.088.311-.062.102.02.18.034.271-.026.081-.053.153-.107.248-.134-.043.085-.052.185-.107.266-.049.069-.13.112-.184.18-.153.191.148.301.184.157.018-.077-.022-.133.073-.173.058-.024.15-.022.158-.092.013-.087.117-.145.202-.156.088-.013.185-.088.271-.08-.021.02-.075.056-.064.091zM19.358 6.878c-.092.14-.158.244-.292.354-.073.062-.053.302-.195.204-.049-.035-.051-.048-.123-.04a.14.14 0 0 0-.109.091c-.027.005-.058.1-.092.038-.02.009-.128.047-.147.038-.029-.012-.053-.085-.081-.109-.074-.06.054-.146-.009-.208a.122.122 0 0 0-.159-.02c-.086.057-.122.002-.205.018-.088.017-.041-.049-.055-.113a.174.174 0 0 0-.121-.003c-.05.014-.034.024-.039.045-.018-.016-.101-.021-.113-.023-.008-.033.084-.088.089-.139 0-.014-.018-.151-.023-.156-.068-.05.038-.079.077-.044.045.038.083-.033.141-.009.005-.028-.103-.06-.126-.064-.061-.009-.123.062-.187.069-.022.002-.114.035-.126.006-.011-.022.005-.055.012-.075a.188.188 0 0 0-.111-.047c-.065-.006-.131.014-.191-.019-.075-.043-.116-.073-.204-.087-.063-.011-.117-.048-.126-.111-.009-.051-.035-.181-.022-.232.072-.014.025.062.083.066.059.004.104.022.163.029.051.006.124.04.175.024.082-.026.106-.157.153-.168a.062.062 0 0 0-.029-.044.3.3 0 0 0 .106-.043c-.027-.015-.09.027-.081-.031.007-.042.032-.079.038-.121.009-.085-.198-.087-.248-.067a.225.225 0 0 0-.105.08c-.039.058-.082.033-.151.024.013-.091-.054-.108-.107-.166a.399.399 0 0 1-.119-.297c.007-.089-.07-.164-.009-.25.095-.133.426-.127.582-.072.351.018.696.052 1.038.149.386.109.728.308 1.107.426.18.055.232.153.173.323-.051.146.079.189.194.229.102.039.219.108.171.235-.042.11-.196.133-.297.15-.128.02-.228.047-.3.16zm-2.591 9.548c.045.012.101-.033.155-.022.034.007.041.029.068.04.031.016.031.016.061.009.022-.015.045-.02.076-.004.02.013.025.035.052.044.039.017.068 0 .11-.002.061.009.088.051.131-.009.027-.056.039-.109.106-.109.052.004.092.027.052.069-.025.031-.043.06-.04.109.011.039.044.039.072.015.033-.033.043-.093.099-.1.05-.004.095.042.148.045.025.002.048-.003.075.006.029.009.04.022.059.034.049.02.085.002.124.026.074.055.105.138.162.197.034.033.087.043.114.078.012.022.018.037.028.051.02.011.04.022.054.044.027.034.007.064.002.105-.007.035.009.064.027.101.029.042.077.169-.013.175a.176.176 0 0 1-.075.003c-.032 0-.014.004-.036-.016a3.926 3.926 0 0 1-.095-.073c-.045-.04-.043-.097-.072-.148-.016-.029-.049-.04-.087-.056-.021-.018-.034-.018-.064-.037-.027-.009-.052-.003-.085-.003-.052-.002-.126-.066-.154-.108-.017-.029-.02-.043-.054-.043-.025-.002-.052.02-.079.02-.067 0-.117-.037-.189-.019-.063.017-.115.004-.185-.003-.074.003-.153-.009-.209-.06-.032-.026-.05-.062-.09-.086-.036-.007-.077-.005-.104-.015-.063-.016-.142-.029-.2-.056-.046-.02-.075-.062-.116-.093-.049-.029-.121-.044-.171-.073-.045-.013-.16-.04-.106-.087a.253.253 0 0 1 .122-.048c.061.009.065.059.106.088.032.025.079.014.113-.018.02-.022.015-.039.045-.02.027.009.043.038.063.049zm-.278-11.091c-.053.02-.108.004-.164.016l-.002-.012c-.038-.011-.081-.044-.066-.086.046-.02.332-.064.341.004.006.036-.083.067-.109.078zm-.657.43c.029.124-.108.268-.136.393a.736.736 0 0 1-.241.347c-.101.076-.297.235-.428.195a7.36 7.36 0 0 0-.236-.062c-.08-.02-.147-.09-.219-.108.045-.113.115.028.169-.053.006.024.058.046.079.022.024-.022.002-.084.002-.111-.002-.069.117-.153.18-.16.045-.004.097-.002.135-.028.048-.034.086.002.149-.014.045-.009.217-.108.194-.168-.088.009-.126 0-.203.064.016-.062.142-.131.122-.188-.061.002-.063.086-.12.095-.056.009-.065-.097-.097-.124-.139-.115-.2.275-.328.242-.057-.014-.039-.094-.122-.078-.102.02-.129.093-.136.186-.004.053-.096.115-.137.164-.065.078-.148.062-.223.009-.065-.044-.056-.146-.135-.173-.075-.027-.172-.005-.241.035-.082.047-.124.144-.203.187-.074.037-.196.024-.273.028-.045.001-.248.027-.227-.068.015-.067.058-.122-.019-.169-.04-.026-.119-.075-.076-.131.036-.046.113-.044.135-.101-.07-.038-.166-.049-.162-.147-.111-.02-.151.078-.221.131-.097.071-.041-.066-.022-.098.026-.044.074-.108.123-.124.05-.019.054-.068.088-.102l-.013.011a.181.181 0 0 1-.039-.168c.021-.062.097-.051.149-.058.156-.019.331-.153.492-.101.153.051.256-.04.41-.034.078.002.167-.013.245-.02.082-.009.147-.059.233-.059.062 0 .2.011.151.101-.025.049-.055.134.042.127.127-.009.214-.191.332-.218.081-.021.04.069.015.098-.009.009-.105.157-.027.126a.108.108 0 0 0 .043-.039c.027-.042.075-.045.124-.058a2.77 2.77 0 0 0 .271-.089c.173-.068.238.007.387.074.045.022.342-.003.313.092-.02.063-.155.093-.211.111-.131.042-.113.096-.088.213zm-2.865 2.319c-.031.042-.175.053-.207.013.004-.007.007-.02.014-.025l-.032.014a.221.221 0 0 1-.185.059c.002-.035-.016-.088-.002-.119.016-.033.059-.042.083-.069.041-.049.066-.122.115-.164.054-.046.154-.062.174.022.022.08-.059.113-.074.176.056-.003.155.041.114.093zm-.259-1.559c.027.009.063.023.095.027-.02.024-.027.057.027.042-.027.058-.084.12-.147.137-.072.018-.155.001-.209.062-.088.1.027.267.157.215.012.049-.024.06.016.076-.117.142-.207.303-.349.082-.133-.206-.358-.049-.494.075-.15.135-.166.359.052.435.138.049.117.066.014.155.047.055-.095.106-.111.173.037-.04.115-.034.127-.098.065.011.025-.069.074-.058.122.025-.032.153-.054.178.043.029.092.006.139.006.041 0 .08.027.12.02.056-.008.029-.053.065-.07.064-.027.023.079.014.091-.039.057-.068.175-.135.188-.061.011-.095.022-.084.099.009.072.032.065-.016.142-.069.104.046.14.062.224.017.089-.01.065.069.104.066.032.133.027.203.038.083.011.223-.086.194-.179-.014-.045-.021-.069.013-.105.023-.026.09-.082.124-.04-.033-.046.027-.079.034-.124.007-.055.106-.046.07-.117-.02-.035-.14-.073-.128-.093.078-.009.16-.02.234.011.119.051.162.25.318.177a.63.63 0 0 0 .327-.403c.036-.135-.075-.166-.179-.204-.063-.024-.072-.064-.101-.122-.032-.066.093-.133-.004-.148-.12-.02-.161-.145-.036-.196.058-.022.119-.008.177-.024.052-.015.072-.157.12-.073.004-.062.16.004.209 0 .068-.005.014-.064.075-.056.04.007.065.045.104.049.054.005.053-.04.09-.059.051-.021.085.048.126.057.045.009.092.042.139.02.034-.016.093-.042.1.022.013.087.056.142.065.217.009.074.187.076.075.175-.064.056-.131.162-.226.133-.059-.017-.047.012-.101.045-.048.029-.055.082-.099.086-.138.013.02.127.015.193-.006.056.034.084.036.135.003.056-.043.116-.051.173-.012.085.153.229.2.3.081.123.162.237.297.308.084.044.124.139.203.19.039.025.099.009.1.058 0 .046-.005.097.011.142.02.062.149.071.205.071.009.101.156-.007.2-.018-.099.115-.175.224-.293.324-.056.046-.121.106-.196.117-.065.011-.117-.027-.171.029-.043.044-.034.113-.076.161-.039.045-.122.052-.172.091-.024.016-.259.18-.243.06.005-.042.032-.075.041-.115.013-.056-.052-.06-.077-.087-.043-.046-.072-.011-.084-.092-.008-.045-.022-.096-.063-.125-.069-.048-.047-.046-.079-.124-.026-.062-.085-.102-.108-.162-.058-.142-.042-.29-.142-.419-.004.051.036.093.019.133a.196.196 0 0 0 .022.151.306.306 0 0 1-.207-.095c-.028-.025-.122-.116-.161-.062.048-.005.152.14.215.171.144.072.144.123.083.27.059.011.149-.04.189.029.036.062-.02.13.088.128-.016.144-.158.237-.166.382-.005.082.027.152 0 .235a.286.286 0 0 1-.192.19c-.23.062-.331-.175-.412-.328-.034-.064-.12-.122-.196-.086-.03.015-.043.048-.073.062-.058.029-.119.015-.173.055-.065.047-.101.133-.183.159-.051.016-.119 0-.162.032-.027.02-.034.055-.036.086a.155.155 0 0 0-.086.058c-.049.057-.144.093-.182.15-.052.076.063.145.054.222-.005.046-.081.162-.117.175-.163.056-.046.219-.003.31.009.018.016.043-.008.056-.039.024-.025.04 0 .088a.684.684 0 0 0 .177.195c.057.045.183.072.199.138.029.118-.054.213-.12.304a1.296 1.296 0 0 0-.13.233c-.018.039-.018.139-.054.163-.149.098-.122-.296-.294-.205-.107.057-.135.225-.268.241-.069.009-.096-.062-.105-.115a.241.241 0 0 1-.115-.022c-.079-.038-.027-.063-.009-.118.027-.087.117-.077.182-.122.083-.058.004-.109.005-.179-.061-.007-.111-.1-.145-.142-.069-.08-.135-.082-.234-.084-.043 0-.077-.029-.113-.049-.013.049-.193-.002-.254.029-.055.03-.133.197-.048.215-.031.07-.112.148-.101.225.004.025.049.01.013.049-.029.029-.035.072-.042.111-.03.175.018.335.065.499a.993.993 0 0 0-.228.098c.057-.071-.008-.189-.106-.158a.222.222 0 0 1-.027.096c-.058.013-.097.011-.124-.038-.038-.069.003-.049.034-.102.063-.109-.076-.251-.131-.124-.004-.111-.195-.288-.227-.074-.009.067.029.196-.101.153-.057-.019-.118-.144-.129-.199-.009.104.104.157.086.244-.009.049-.104.13-.144.166.067-.002.139-.006.204.004-.002.049-.044.076-.044.138-.012.002-.025.006-.036.007.045.057.009.139-.007.201-.021-.004-.056.009-.077.007-.004.035-.018.055-.047.046a.033.033 0 0 1-.003.029.029.029 0 0 1-.035.002c0-.017-.01-.042-.009-.059-.053.051-.082-.031-.142-.02-.009.086-.001.17-.12.144-.047-.009-.146-.118-.191-.105-.019.005-.032.032-.041.063a.243.243 0 0 0-.075-.016c-.09-.007-.155.075-.263.062-.12-.015-.137 0-.235.069-.087.062-.148-.013-.234-.029-.058-.011-.115-.013-.171-.029-.023-.007-.052-.02-.066-.04-.027-.04-.123-.031-.173-.037-.21-.018-.419-.014-.606.095-.142.084-.318.217-.347.388-.047.281.329.31.495.43.213.153-.231.283-.337.321a.923.923 0 0 0-.345.198c-.075.073-.124.248-.259.19-.19-.084-.338-.315-.445-.481-.087-.04-.166-.321-.177-.41-.007-.055-.106-.233-.028-.248.016-.045-.026-.093-.044-.129-.034-.071-.012-.155-.043-.23-.032-.076.09-.208.074-.302-.007-.04-.04-.059-.005-.099.043-.053.05-.091.061-.156.02-.108.147-.099.176-.194.009-.027.011-.08.047-.089.072-.018-.009.106.028.135.002-.098.035-.193.035-.295 0-.12.021-.239.039-.357a.864.864 0 0 1 .07-.266c.029-.053.034-.232-.075-.146a2.877 2.877 0 0 1 .034-.587c.041-.224.14-.421.243-.621.199-.386.359-.802.602-1.164.118-.177.257-.339.377-.516.063-.096.132-.189.18-.293.045-.097.122-.152.194-.23.13-.138.234-.27.389-.388.066-.051.14-.146.233-.124.103.022.133-.058.207-.106-.002.064.011.112.002.177.057-.062.095-.149.147-.217.074-.091.158-.173.259-.237.038-.025.063-.065.103-.089.03-.016.066-.014.097-.031.036-.022.259-.135.226-.173-.126-.151-.573.41-.705.385-.005-.071.18-.166.231-.201.147-.098.287-.226.427-.335.148-.115.297-.237.455-.339.074-.046.155-.078.223-.131.049-.037.103-.109.175-.1-.008.149.113.014.17 0 .141-.035.288-.135.419-.194.083-.038.757-.481.788-.358.063.007.095-.081.174-.068.103.015.167-.031.25-.084.137-.089.282-.178.422-.262.054-.031.103-.038.094.04-.006.047-.103.067-.137.087a.46.46 0 0 0-.147.157c-.058.091-.137.164-.202.252.065.014.096-.04.151-.059.069-.02.083.033.153-.011.033-.018.065.006.092.017.04.016.049-.009.081-.022.047-.018.102.076.165.078.196 0-.205.226-.009.255.083.011.078.071.155.099zm.217-.006c-.032.002-.057.024-.089.031-.009.002-.022.002-.033.002a.073.073 0 0 1 .024-.02.218.218 0 0 1 .098-.013zM7.191 20.631c.082-.009.089.108.151.139 0-.008.001-.011.003-.017a.183.183 0 0 1 .076.129c.009.072.027.11.052.175.018.046.021.148-.047.164-.061.013-.077-.065-.119-.093-.107-.071-.26.055-.305-.129-.018-.071-.009-.118-.059-.18-.04-.049-.083-.08-.047-.148.054-.1.226-.149.295-.04zm.169.095c-.004.011-.009.018-.015.027l-.016-.013.031-.014zm-.062-.259c-.061-.056-.023-.246.072-.166.04.031.056.124.035.161-.027.045-.083.065-.107.005zm.223-5.554c.027-.018.027-.043.044-.065.023-.033.041-.031.071-.018.011.005.024.018.04.012.023-.009.002-.018.018-.023.057-.053.054.031.052.074.002.05.022.035.049.059.023.018.003.032.01.056.009.022.038.029.056.057.02.025.009.047-.005.076-.051.077-.151.037-.216 0-.029-.007-.066-.036-.09-.053-.023-.016-.054-.031-.077-.047-.029-.007-.07-.027-.063-.055.002-.018.048-.051.065-.056l.046-.017zm9.257 3.617c.081.046.153.077.246.042.083-.033.14-.084.236-.075.113.01.126.075.165.161.061.131.273.1.245.282-.15.082-.006.204.034.308.02.053.016.111.018.168 0 .042.016.113-.018.145-.031.03-.101.03-.14.039-.054.014-.106.042-.162.049-.097.015-.173-.049-.261.018-.034.026-.059.058-.099.079-.045.021-.1.029-.149.04-.047.011-.102.029-.149.009-.038-.017-.056-.059-.092-.079-.088-.051-.225.04-.311.068-.068.022-.194.091-.266.056-.104-.051.041-.186.07-.24.045-.09.025-.19.047-.285-.038-.003-.043-.032-.074-.045-.011-.006-.038-.004-.05-.007-.015-.002-.029-.011-.043-.015-.006.044-.076.086-.074.024a1.778 1.778 0 0 1-.054-.017c.002-.036.068-.156.113-.155l-.012-.01c.113-.104.237-.225.393-.257.072-.017.16-.042.211-.101.057-.065-.013-.136.005-.209.02-.084.122-.02.171.007zm.92-.993c.006.027.058.044.056.068 0 .011-.063.016-.074.016-.034.011-.07.011-.098.027-.022.011-.04.028-.063.039-.087.038-.022-.09-.022-.135.005-.04-.032-.146.007-.186l-.005-.027c0-.024-.011-.046.007-.073.005-.019.04-.029.058-.046.023-.011.046-.044.068-.022a.06.06 0 0 1 .018.04c.016.017.034.035.045.057a.14.14 0 0 1-.007.084c-.006.04.005.051.01.089 0 .024-.01.045 0 .069zm1.059.953c-.012.029-.075.026-.108.02-.018 0-.036 0-.054-.016-.019-.018-.005-.048-.034-.042-.025-.004-.039.025-.068.029-.011.004-.032-.007-.047.004-.07.012-.032.029-.039.078-.002.044-.052.073-.038.115.009.04.038.089.056.124.061.153-.148.027-.193-.011-.046-.031-.091-.051-.099-.108-.016-.043-.012-.085-.018-.131-.008-.111.026-.219.036-.328.002-.06-.012-.104-.021-.16-.015-.042-.054-.082-.011-.115.027-.058.011-.088-.004-.148a.365.365 0 0 1-.028-.109c.009-.111-.072-.184-.099-.295-.011-.049.012-.099.072-.071l.043.02c.016.025.012.049.038.053.036.016.122-.05.145-.002.007.02-.014.027-.007.049.009.022.031.031.045.038.043.02.081.039.092.088 0 .018-.007.031.009.056.018.018.036.017.054.017.052.007.109-.002.131.043.038.053-.041.051-.045.095-.004.042.038.069.059.099a.285.285 0 0 1 .065.107c.011.051-.025.069-.023.122-.008.049.07.077.048.139-.014.045-.056.096-.038.149.02.036.096.046.081.091zm-11.25 2.128c.081-.022.158.042.237.024.083-.018.108-.115.115-.184.033.04.076.031.105.069.03.046.097.053.142.075.019-.057-.029-.15-.027-.211 0-.035-.034-.103-.024-.128.024-.058.133-.108.189-.126.067-.022.146.028.205.053.059.026.124.011.185-.002a.504.504 0 0 1 .095-.012.153.153 0 0 1 .044-.073c.046-.048.1-.028.151-.002.097.045.176-.148.194-.228a1.01 1.01 0 0 0 .005-.395c-.032-.119-.061-.153.049-.212.023-.011.03-.038.041-.063-.092-.166-.14-.347-.047-.502.076-.127.243-.24.193-.379l.257.022a.887.887 0 0 1 .55-.333c.126-.14.327-.29.478-.177.049.037.079.095.135.122.054.026.117.015.176.013a.53.53 0 0 1 .493.328l-.15.186c.062.228.414.31.551.118.091-.125.097-.331.24-.382.072-.026.155 0 .234.027l.004-.004c.002 0 .002.006.002.006a.59.59 0 0 0 .187.042c.014-.024.016-.033.032-.06-.002.001.016.025.02.034.018-.009.037-.007.05-.027.054-.075.009-.186.043-.272.033-.08.121-.078.196-.045.052-.106.103-.208.171-.354.034-.074.005.303-.047.676.006.004.002.013.009.017.041.012.083-.022.112-.057.068-.084.118-.186.205-.253a.23.23 0 0 1 .201-.036c.03-.048.063-.104.079-.108.095-.022.169-.06.266-.024.083.033.151.099.237.121.058.014.166.012.196.074.024.051.065.051.126.068.025.007.077.009.079.045-.003.02-.014.024-.034.011.007.055.077.053.117.069.074.031.135.081.198.126.122.089.206.219.298.337.023.031.126.151.083.193-.027.028-.085.022-.119.039-.056.025-.136.056-.185.091-.045.031-.065.084-.11.111-.122.073-.221-.111-.287-.166-.09-.075-.052-.209-.124-.27-.115-.1-.272-.145-.407-.211-.073-.036-.154-.064-.217-.118-.043-.039-.085-.082-.144-.095l-.002.004c-.03.112.112.164.184.216.088.064.109.161.152.252.051.105.133.193.209.28.034.037.079.064.102.11.022.043.002.093.033.133-.148.058-.275-.254-.36-.325-.034-.031-.104-.067-.151-.049-.027.053-.074.122-.036.164.031.033.027.084.043.124.018.046.056.095.081.137.031.047.085.067.115.115.02.032.029.069.045.102.027.056.105.153.178.111.081-.046.051-.412.169-.248.061.086.081.525.259.43.104-.055.081-.119.21-.068.062.022.135-.089.162.019.024.084.042.065.115.105.058.031.054.108.054.163 0 .067.004.147.087.162.073.011.055.096.066.147.049.223.361.026.405.184.01.042.016.084.062.102.027.011.063.013.08.039.05.069.045.109.149.133.129.031.334-.006.431-.101.043-.04.06-.136.115-.158.065-.027.141.08.155.126.029.082.032.151.11.206a.488.488 0 0 1 .188.189c.099.204-.135.355-.055.548.018.044.05.082.084.113-.007.02-.023.062-.002.081.052.045.115-.057.151.005.099.179-.135.259-.246.328-.122.077-.068.272-.054.386.095-.005.173-.093.273-.094.146 0 .031.202-.021.246a.457.457 0 0 1-.446.052c-.041-.018-.119-.071-.147-.005-.029.064-.09.122-.045.195.075.127.285.08.318.253.021.119-.158.195-.031.273.099.061.139.141.202.23.077.111.219-.1.269.035-.023-.082.087-.057.131-.066.063-.011.112-.067.13-.126.034-.107-.101-.158-.171-.207-.059-.042-.048-.071 0-.117-.032-.082-.115-.117-.163-.186-.062-.089-.02-.233.07-.29.142-.091.276.123.41.148.151.029.319-.007.444.102.113.097.17.235.311.306.061.031.124.048.136.124.013.086.101.049.158.106.038.036.042.093.101.107a2.058 2.058 0 0 1-.342.337c-.106.082-.224.157-.291.275-.136.243-.027.547-.194.78-.142.201-.358.301-.43.549-.066.227-.125.433-.359.546-.268.128-.579.166-.872.195-.277.026-.565.029-.804.19-.223.149-.442.277-.721.277-.066 0-.131-.004-.197-.009-.056.042-.092.102-.146.145-.108.088-.234-.021-.336-.06.016.033.02.066.011.101-.052-.021-.108.029-.157-.01-.043-.031-.068-.083-.126-.094-.134-.024-.217.04-.348-.046-.191-.124-.387-.106-.61-.135a4.751 4.751 0 0 1-.683-.147c-.403-.115-.838-.244-1.204-.45-.171-.095-.347-.223-.408-.414-.026-.075-.004-.171-.031-.242-.018-.046-.214-.066-.262-.082-.105-.035-.342-.019-.295-.175.032-.111.176-.071.262-.079.169-.014.153-.187.051-.277-.092-.082-.293-.116-.285-.26.011-.146.107-.45-.089-.508-.148-.044-.29-.064-.342-.214-.027-.08-.097-.134-.128-.218a.393.393 0 0 0-.206-.193c-.056-.024-.211.003-.232-.061a.517.517 0 0 1-.031-.163c.011-.175.246.096.313.096.138-.004.262-.175.167-.291.042-.02.117-.011.137-.062-.047-.01-.144.034-.173-.024-.029-.057.033-.135-.016-.186-.043-.047-.12.009-.174.004-.065-.006.039-.075.036-.099-.076-.002-.139.064-.204.091-.059.028-.122.044-.181.071-.052-.036.02-.089.045-.114.056-.053.021-.111 0-.17.129.009.133-.084.057-.162-.099-.1-.054-.173-.099-.288-.052-.133-.134-.062-.181.02-.088.151-.174-.038-.216.002-.039-.115-.127-.175-.225-.242-.088-.059-.1-.164-.161-.243-.074-.093-.2-.127-.261-.233-.056-.096-.081-.209-.156-.295-.045-.051-.385-.317-.173-.372zm1.28 2.371c.032-.002.081.033.07.064l-.014.014c.014.006.025.011.028.027-.052.006-.044.073-.064.108a.099.099 0 0 1-.086-.149c.01-.022.037-.062.066-.064zm15.723-2.815c-.02-.048.032-.062.056-.099.028-.042.014-.093.081-.091.028.002.032.009.057 0 .025-.007.054-.029.077-.042.015.06.033.097.062.148.028.049.009.091-.024.133-.023.027-.046.058-.082.069-.04.015-.099.02-.103-.034-.003 0-.009 0-.013-.002l.006-.009-.009.011c-.034-.017-.094-.048-.108-.084zm-.009 1.787c-.063.108-.191.139-.288.199-.086.056-.138.144-.223.2-.133.089-.452.359-.607.306-.015-.098.156-.2.226-.248.054-.036.078-.082.117-.123.059-.059.13-.09.171-.174.054-.109-.048-.304.045-.375.072-.053.106.015.18-.007.045-.015.072-.048.095-.073.07-.104.016-.293-.113-.321.034-.105.241-.284.367-.242-.011.045-.045.104-.022.16.095-.005.19-.14.172-.231a.21.21 0 0 0-.095-.117c-.092-.036-.093.026-.149.046-.117.044-.25.031-.374.087-.119.051-.192.099-.333.075-.01-.016-.01-.033 0-.047.031.003.078-.015.108-.01.007-.069.139-.111.2-.142l.093-.049c.025-.016.067-.054.09-.067.09-.057.248-.235.363-.239.036.098.092.171.209.153.056-.011.077-.004.104-.085.018-.053.022-.104-.016-.15.216.011.076-.166.207-.255.068.056.115-.02.189.002l.01.047c.02-.009.06-.003.081-.022.09.162-.122.505-.203.649-.052.091-.126.166-.163.262-.044.111-.022.243-.116.326-.075.066-.136.092-.203.172-.036.042-.073.06-.093.115-.022.062.007.116-.029.178z"/>
</svg>
