<!-- This Source Code Form is subject to the terms of the Mozilla Public
   - License, v. 2.0. If a copy of the MPL was not distributed with this
   - file, You can obtain one at http://mozilla.org/MPL/2.0/. -->
<svg xmlns="http://www.w3.org/2000/svg" width="32" height="32" viewBox="0 0 32 32">
  <path fill="#ff9500" d="M28.924 21.127c.023-.179.025-.347.005-.501-.428.733-1.085 1.399-1.701 2.279.752-.484 1.396-1.039 1.696-1.778zm1.173-7.203a8.594 8.594 0 0 0-.061-.53 7.01 7.01 0 0 0-.308-1.318l.019.079-.016-.048s-.117.365-.296.963c-.012 1.22-.145 2.347-.341 3.198.325-.306.563-.669.726-1.072a3.395 3.395 0 0 1-.3.751 3.227 3.227 0 0 1-1.02 1.077 5.76 5.76 0 0 0 .125-.393l.002-.005.03-.113a13.556 13.556 0 0 0 .535-2.615 11.583 11.583 0 0 0-.088-3.154 9.471 9.471 0 0 0-.392-1.524 8.695 8.695 0 0 0-.796-1.676l-.063-.108a8.06 8.06 0 0 0-.283-.442c-.312-.451-.631-.794-.896-.981l.058.068c-.05-.048-.079-.073-.079-.073l.08.448c-.764-1.238-1.926-1.821-1.926-1.821s.095.31.243.756c.691.558 1.295 1.18 1.819 1.836l.006.034.098.565a12.549 12.549 0 0 0-.29-.375 13.343 13.343 0 0 0-4.072-3.672c.014.004-.011-.003.002.001A12.993 12.993 0 0 0 16.039 2C12.495 2 9.273 3.423 6.88 5.744c-.066.065.391.526.524.567a5.23 5.23 0 0 1 2.019-.191c.282-.223.24-.157.538-.351l.003.003a11.128 11.128 0 0 1 6.071-1.79c2.007 0 3.934.528 5.634 1.521a8.603 8.603 0 0 1 1.513.588 9.452 9.452 0 0 0-1.421-1.909c1.55 1.182 2.389 2.243 2.94 3.214a10.554 10.554 0 0 1 .398.781c-.529-.559-1.346-1.135-2.06-1.405a3.517 3.517 0 0 0-.171-.06 2.094 2.094 0 0 0-.454-.095c1.136.871 2.993 3.361 3.018 7.127v.063c0 .203-.004.409-.015.62-.21-.456-.54-1.087-.855-1.558a4.484 4.484 0 0 0-.232-.318 1.955 1.955 0 0 0-.187-.205c.336 3.171.181 4.404-.027 5.305l-.059.243c-.042.164-.084.322-.123.484a2.882 2.882 0 0 0-.06-.338 3.63 3.63 0 0 0-.208-.616 14.341 14.341 0 0 1-.063-.144s-.022.574-.278 1.5c-.126.454-.307.991-.571 1.587-.46 1.041-.931 1.536-1.253 1.695a.435.435 0 0 1-.259.055c-.075-.005-.116-.038-.115-.041.008-.075.016-.15.019-.222a.697.697 0 0 0-.027-.261s-.257.091-.422.331a1.28 1.28 0 0 1-.266.279c-.02.016.183-.267.168-.254-.1.084-.207.181-.314.296-.115.123-.226.249-.331.364-.255.278-.471.486-.602.392a.436.436 0 0 0 .22-.183.812.812 0 0 0 .127-.318c-.155.112-.547.414-1.427.549-.163.025-.565.097-1.145.072-.703-.031-1.667-.205-2.782-.78.233-.028.558-.1.851-.029a.761.761 0 0 1 .228.093.62.62 0 0 0-.109-.095c-.382-.273-1.103-.226-1.634-.399-.511-.167-1.178-.906-1.562-1.28a6.03 6.03 0 0 0 .733.134c.156.019.312.033.467.04 1.167.051 2.276-.236 2.994-.742.972-.686 1.548-1.187 2.065-1.069a.611.611 0 0 0 .205.013.47.47 0 0 0 .419-.566.717.717 0 0 0-.166-.337 2.584 2.584 0 0 0-1.562-.839 2.836 2.836 0 0 0-1.132.068c-.757.195-1.431.714-2.318.718a2.515 2.515 0 0 1-.978-.201 3.427 3.427 0 0 1-.266-.122c-.091-.047.297.055.201-.003-.273-.104-.77-.339-.893-.428-.02-.015.206.042.182.027-1.349-.823-1.261-1.482-1.261-1.889 0-.165.049-.358.144-.536.093-.176.23-.336.409-.438a2.769 2.769 0 0 1 .315.137l-.033-.052a2.09 2.09 0 0 0-.114-.16.647.647 0 0 1 .041-.013c.094.033.258.095.414.159.107.044.21.089.283.127.246.127.328.257.328.257s.058-.037-.002-.167a.67.67 0 0 0-.075-.119 1.07 1.07 0 0 0-.28-.244l.012-.001c.128.052.263.118.412.205l.024-.106.004-.014.006-.024.021-.092a1.592 1.592 0 0 0 .022-.623c-.045-.285-.039-.358-.108-.462-.059-.088.016-.127.108-.048a1.31 1.31 0 0 0-.09-.211l.001-.003a.345.345 0 0 1 .094-.143c.013-.015.029-.03.045-.046l.049-.045c.52-.46 1.943-1.234 2.069-1.33.21-.16.424-.408.558-.693.042-.078.078-.172.105-.282a1.84 1.84 0 0 0 .043-.531c-.008-.173-.077-.303-.697-.369-.333-.035-.826-.052-1.555-.047h-.08c-.592.005-.977-.35-1.209-.688-.048-.074-.089-.144-.127-.207a2.263 2.263 0 0 1-.112-.245 4.841 4.841 0 0 1 1.585-2.488c.049-.043-.193.028-.147-.016.055-.053.397-.222.461-.259.039-.023-.041-.062-.176-.09l-.025-.004a1.506 1.506 0 0 0-.56.003c-.391.083-.467.131-.669.238.082-.087.347-.225.282-.211-.424.098-.924.386-1.35.697a.566.566 0 0 1 .008-.135c-.201.107-.686.493-.81.787 0-.064 0-.096-.008-.167-.126.12-.248.26-.36.415l-.031.041a.018.018 0 0 1-.005.007 6.613 6.613 0 0 0-.973-.176 5.403 5.403 0 0 0-2.263.227c-.214-.161-.558-.407-1.101-1.272-.033-.052-.036.119-.066.064-.158-.294-.299-.742-.368-1.15a3.055 3.055 0 0 1-.044-.403s-.164.099-.341.4a2.438 2.438 0 0 0-.236.55 3.565 3.565 0 0 1-.098.281c-.009.022.017-.238.007-.218-.016.035-.044.077-.074.125a1.15 1.15 0 0 0-.134.282c-.03.125-.079.201-.099.357a.03.03 0 0 1-.004.01L4.231 6.2c-.002-.048-.006-.095-.013-.077-.1.274-.194.589-.27.944a8.572 8.572 0 0 0-.155 2.301c-.001.035.002.07.004.104.003.042.006.083.005.122-.341.484-.563.9-.649 1.105a7.59 7.59 0 0 0-.26.585c-.329.818-.652 1.95-.924 3.529 0 0 .231-.752.692-1.603-.34 1.072-.606 2.74-.45 5.242.004-.055.037-.351.111-.792.038-.225.086-.487.148-.775l.012.196a13.733 13.733 0 0 0 .125 1.167 13.14 13.14 0 0 0 1.59 4.563c.957 1.691 3.479 5.619 9.808 7.089a2.995 2.995 0 0 1-.481-.19 2.828 2.828 0 0 1-.645-.43s.201.066.528.159c.674.191 1.883.492 2.981.551.198.01.393.014.58.006-.54-.096-.648-.365-.648-.365s4.913.286 7.465-1.794c.05-.041.1-.083.149-.126l.011-.005c.382-.327.661-.685.81-1.031-.119.059-.237.114-.352.166-.378.41-.839.745-1.348 1.019a7.318 7.318 0 0 1-1.306.248 5.154 5.154 0 0 1-.43.025c.275-.261.638-.452 1.068-.638.637-.276 1.424-.54 2.296-.999l.006-.003.156-.084a10.2 10.2 0 0 0 2.399-1.824c.794-.806 1.183-1.502 1.399-2.137.06-.178.107-.351.145-.52.064-.283.105-.556.146-.824V21.1l-.001.005a3.966 3.966 0 0 1-.023.116c-.239 1.046-1.113 1.751-2.116 2.364-.186.113-.377.223-.568.332.113-.221.233-.426.356-.623l.01-.015-.006.014a4.64 4.64 0 0 0-.036.074l.053-.084c.195-.31.409-.614.629-.911.528-.683 1.046-1.254 1.389-1.882.051-.093.105-.198.161-.313.021-.043.043-.087.064-.134a12.891 12.891 0 0 0 1.251-4.526 9.852 9.852 0 0 0 0-1.593z"/>
</svg>
