<svg xmlns="http://www.w3.org/2000/svg" width="16" height="16">
  <path d="M5.5,5h-2C3.2,5,3,5.2,3,5.5S3.2,6,3.5,6h2 C5.8,6,6,5.8,6,5.5S5.8,5,5.5,5z M5.5,7h-2C3.2,7,3,7.2,3,7.5S3.2,8,3.5,8h2C5.8,8,6,7.8,6,7.5S5.8,7,5.5,7z M5.5,9h-2 C3.2,9,3,9.2,3,9.5S3.2,10,3.5,10h2C5.8,10,6,9.8,6,9.5S5.8,9,5.5,9z M15.4,2c0,0-3.1,0-4.4,0S8.1,2.5,8,4.3C7.9,2.5,6.3,2,5,2 S0.6,2,0.6,2C0.3,2,0,2.3,0,2.7v9.6C0,12.6,0.3,13,0.6,13c0,0,2.6,0,4.4,0c1.6,0,2.8,1,3,2.3C8.2,14,9.4,13,11,13 c1.8,0,4.4,0,4.4,0c0.4,0,0.6-0.4,0.6-0.8V2.7C16,2.3,15.7,2,15.4,2z M14,11L14,11c-0.2,0-1.6,0-3,0c-1.6,0-2.9,0.8-3,2.2 C7.9,11.8,6.6,11,5,11c-1.4,0-2.8,0-3,0l0,0l0,0V4c0,0,2.7,0,3.5,0C6.6,4,8,5.5,8,6.8C8,5.5,9.4,4,10.5,4C11.3,4,14,4,14,4V11 L14,11z"/>
</svg>
