<!-- This Source Code Form is subject to the terms of the Mozilla Public
   - License, v. 2.0. If a copy of the MPL was not distributed with this
   - file, You can obtain one at http://mozilla.org/MPL/2.0/. -->
<svg xmlns="http://www.w3.org/2000/svg" width="16" height="16" viewBox="0 0 16 16">
  <path fill="context-fill" d="M15 9a1 1 0 0 1-.707-.293L8 2.414 1.707 8.707A1 1 0 0 1 .293 7.293l7-7a1 1 0 0 1 1.414 0l7 7A1 1 0 0 1 15 9z"/>
  <path fill="context-fill" d="M12 6v7a1 1 0 0 1-1 1H5a1 1 0 0 1-1-1V6H2v7a3 3 0 0 0 3 3h6a3 3 0 0 0 3-3V6z"/>
  <path fill="context-fill" d="M9 8H7a1 1 0 0 0-1 1v5a1 1 0 0 0 1 1h2a1 1 0 0 0 1-1V9a1 1 0 0 0-1-1zm-.5 4a.5.5 0 1 1 .5-.5.5.5 0 0 1-.5.5z"/>
</svg>
