<svg width="16" height="16" viewBox="0 0 16 16" xmlns="http://www.w3.org/2000/svg">
  <path d="M9 5.236c.614-.55 1-1.348 1-2.236 0-1.657-1.343-3-3-3S4 1.343 4 3c0 .888.386 1.687 1 2.236V2.998C5 1.895 5.888 1 7 1c1.105 0 2 .887 2 1.998v2.238zM10 13V8.002C10 7.45 10.444 7 11 7c.552 0 1 .438 1 1.003v1.992V8.99c0-.546.444-.99 1-.99.552 0 1 .45 1 .99V13.03c-.017 1.09-.906 1.97-2 1.97H8c-1.105 0-2-.895-2-2V3C6 2.45 6.444 2 7 2c.552 0 1 .456 1 1.002V9 6.996C8 6.447 8.444 6 9 6c.552 0 1 .453 1 .997V13zm-5 .732l-.02.012C4.823 12.76 3.772 12 2.5 12c-.17 0-.338.014-.5.04V12c0-1.105.895-2 2-2 .364 0 .706.097 1 .268v3.464z" fill-rule="evenodd"/>
</svg>
