<svg xmlns="http://www.w3.org/2000/svg" viewBox="0 0 32 32"><title>firefox</title><g id="Media-icons"><path d="M1,26a1.62,1.62,0,0,1,.34-.07,1.71,1.71,0,0,1,1.71,1.71A1.62,1.62,0,0,1,3,28H1Z"/><path d="M1,23.33V20.87a7.47,7.47,0,0,1,.82-.08A7.46,7.46,0,0,1,9.3,28H6.84a5,5,0,0,0-5-4.74A4.63,4.63,0,0,0,1,23.33Z"/><path d="M1.87,18.4c-.29,0-.56.06-.85.08v-2c.27,0,.53-.08.8-.08A11.87,11.87,0,0,1,13.68,28h-2A9.84,9.84,0,0,0,1.87,18.4Z"/><path d="M28.28,4.49H3.47A2.54,2.54,0,0,0,1,7v6.12H4.3V9.49A1.56,1.56,0,0,1,5.95,7.84h19.8A1.56,1.56,0,0,1,27.4,9.49v13.2a1.56,1.56,0,0,1-1.65,1.65H16.53v3.3H28.28a2.49,2.49,0,0,0,2.42-2.47V7A2.49,2.49,0,0,0,28.28,4.49Z"/></g></svg>