<svg xmlns="http://www.w3.org/2000/svg" viewBox="0 0 32 32"><title>firefox</title><g id="Media-icons"><g id="subtitle"><path d="M28.48,4.49H3.68A2.54,2.54,0,0,0,1.2,7v18.2a2.54,2.54,0,0,0,2.47,2.47h24.8a2.49,2.49,0,0,0,2.42-2.48V7A2.49,2.49,0,0,0,28.48,4.49Zm-.88,18.2A1.56,1.56,0,0,1,26,24.34H6.15A1.56,1.56,0,0,1,4.5,22.69V9.49A1.56,1.56,0,0,1,6.15,7.84H26A1.56,1.56,0,0,1,27.6,9.49ZM11.8,19c-1.34,0-1.58-1.3-1.58-2.69,0-1.91.56-2.88,1.48-2.88s1.35.59,1.43,1.62h2.45c-.21-2.54-1.53-4-4-4-2.24,0-4,2-4,5.18s1.61,5.21,4.26,5.21c2.12,0,3.55-1.53,3.79-4.09H13.15C13.05,18.32,12.65,19,11.8,19Zm8.8,0C19.27,19,19,17.75,19,16.36c0-1.91.56-2.88,1.48-2.88s1.25.59,1.32,1.62h2.5c-.21-2.54-1.48-4-3.94-4-2.24,0-4,2-4,5.18s1.56,5.21,4.21,5.21c2.12,0,3.5-1.53,3.74-4.09H21.85C21.75,18.32,21.45,19,20.6,19Z"/></g></g></svg>