<svg xmlns="http://www.w3.org/2000/svg" viewBox="0 0 14 14"><defs><style>.cls-1{fill:none;stroke:#000;stroke-linecap:round;stroke-linejoin:round;stroke-width:2px;}</style></defs><title>lock-disabled-16</title><g id="Layer_2" data-name="Layer 2"><g id="Construction"><path d="M11.5,6H11L3,14h8.5A1.5,1.5,0,0,0,13,12.5v-5A1.5,1.5,0,0,0,11.5,6ZM5,6V4A2,2,0,0,1,9,4V5l1.89-1.89A4,4,0,0,0,3,4V6H2.5A1.5,1.5,0,0,0,1,7.48v5a1.55,1.55,0,0,0,.07.43L8,6Z"/><line class="cls-1" x1="13" y1="1" x2="1" y2="13"/></g></g></svg>